<svg width="888" height="637.96158" xmlns="http://www.w3.org/2000/svg" data-name="Layer 1">
 <title>adventure</title>

 <g>
  <title>Layer 1</title>
  <circle id="svg_1" fill="#2f2e41" r="30.99674" cy="76.13114" cx="174.02316"/>
  <path id="svg_2" fill="#2f2e41" d="m79.61478,449.30763l19.04375,-66.04535l6.483,2.02593s-7.69854,49.43272 -19.85412,61.99349l-5.67263,2.02593z"/>
  <path id="svg_3" fill="#ffb9b9" d="m152.14311,94.76972s2.43112,25.93191 -3.24149,33.22527s3.64667,21.47486 3.64667,21.47486l17.01782,20.25931l25.12155,-11.34521l3.64667,-21.06968l-2.43111,-14.58671s-8.50891,-8.50891 -4.86224,-23.906s-38.89787,-4.05184 -38.89787,-4.05184z"/>
  <path id="svg_4" opacity="0.1" d="m152.14311,94.76972s2.43112,25.93191 -3.24149,33.22527s3.64667,21.47486 3.64667,21.47486l17.01782,20.25931l25.12155,-11.34521l3.64667,-21.06968l-2.43111,-14.58671s-8.50891,-8.50891 -4.86224,-23.906s-38.89787,-4.05184 -38.89787,-4.05184z"/>
  <polygon id="svg_5" fill="#ffb9b9" points="166.73 579.778 166.73 596.39 189.015 600.847 186.989 573.295 166.73 579.778"/>
  <polygon id="svg_6" fill="#ffb9b9" points="233.586 573.295 228.723 596.39 238.448 603.278 255.466 590.718 253.44 570.863 233.586 573.295"/>
  <path id="svg_7" fill="#2f2e41" d="m191.041,598.82134s-8.50891,-14.38252 -24.31117,-5.36792c0,0 -2.8363,15.90276 -5.67261,17.11832s-18.63856,24.31117 0,26.3371s27.95785,-4.05186 27.95785,-4.05186s-3.64667,3.13776 2.02593,1.517s3.24149,-10.53484 3.24149,-10.53484l-3.24149,-25.0178z"/>
  <path id="svg_8" fill="#2f2e41" d="m246.55149,589.09687s-12.56077,8.91409 -14.5867,4.86223s-5.26742,-3.64667 -5.26742,-3.64667s-11.34522,42.76822 -4.05186,44.79415a24.58356,24.58356 0 0 0 14.18149,-0.73253s9.72447,-6.81038 9.72447,-1.543s27.14748,4.88816 38.49269,4.483s5.26742,-8.91409 5.26742,-8.91409l-14.99189,-14.5867l-17.01782,-24.71636s-7.69852,-6.8882 -11.75038,-0.00003z"/>
  <path id="svg_9" fill="#2f2e41" d="m127.02156,318.02731l17.01782,163.29s9.31929,99.6758 10.94,101.29655s12.15559,6.88816 35.2512,0l-5.26742,-130.46995l9.72447,-81.03724l22.28524,55.91569s5.26742,150.32408 8.91409,150.32408s25.93192,7.29335 31.19934,-1.62075s4.45705,-104.94322 4.45705,-104.94322s-2.43112,-151.53963 -20.25931,-156.40187s-114.26248,3.64671 -114.26248,3.64671z"/>
  <circle id="svg_10" fill="#ffb9b9" r="27.95785" cy="81.80375" cx="174.02316"/>
  <path id="svg_11" fill="#575a89" d="m175.64391,159.59951s-2.83631,-17.423 -2.83631,-20.6645s-12.56077,-5.26742 -12.56077,-5.26742s-9.72447,-10.94 -11.7504,-9.31928s-32.82008,22.28524 -37.68231,25.12154s-10.12966,14.99189 -9.72447,15.80226s25.52673,53.48458 25.52673,53.48458s10.94,32.4149 3.24149,49.43272s-17.423,50.64827 -3.24149,57.53644s83.06317,21.88 95.62394,8.91409s21.47487,-16.61263 24.71636,-16.61263s-13.37115,-56.32088 -9.72447,-61.5883s-1.62075,-38.0875 -1.62075,-38.0875l18.63857,-52.269s-1.62075,-29.17341 -38.49269,-35.65639l-22.05834,-10.69507l-18.05509,39.86846z"/>
  <path id="svg_12" fill="#ffb9b9" d="m99.87409,325.32066s-2.02593,19.44894 -2.02593,25.12154s-9.72447,38.89788 4.457,42.94974s12.966,-44.1653 12.966,-44.1653l0,-24.71635l-15.39707,0.81037z"/>
  <path id="svg_13" fill="#ffb9b9" d="m268.02636,307.08728s2.43112,18.63857 1.21556,22.69043s11.7504,39.30306 -5.67261,41.329s-12.966,-42.13937 -12.966,-42.13937l0,-21.88l17.42305,-0.00006z"/>
  <path id="svg_14" fill="#2f2e41" d="m96.22741,442.82465l11.7504,-62.39867l3.64668,0a24.5429,24.5429 0 0 1 3.64668,23.5008c-4.86224,13.77633 -8.9141,38.89787 -8.9141,38.89787l-10.12966,0z"/>
  <path id="svg_15" fill="#575a89" d="m107.16744,160.40988l-6.07779,4.86223s-8.10372,128.84921 -6.07779,138.57368s-7.29336,23.5008 0.81037,24.71636s17.82819,6.483 22.28524,3.24149s5.26742,-14.99189 6.88816,-17.82819s4.457,-36.46676 4.457,-36.46676s8.50891,-33.63045 3.24149,-58.752s-10.12965,-50.64827 -10.12965,-50.64827l-15.39703,-7.69854z"/>
  <path id="svg_16" fill="#575a89" d="m235.61146,150.28023l18.63854,15.80226l14.18151,82.658s8.9141,64.4246 2.02594,65.235s-17.423,-1.21556 -21.88006,0s-8.10372,-2.02594 -8.10372,-2.02594s-4.86224,-25.93191 -4.86224,-26.3371s-3.24143,-29.98382 -3.24143,-29.98382l-4.05186,-33.22526l6.07779,-36.46676l1.21553,-35.65638z"/>
  <path id="svg_17" fill="#3f3d56" d="m147.68606,532.77599s-2.63371,7.56482 -6.26416,17.86464c-1.68559,4.78931 -3.58594,10.17425 -5.543,15.66451c-1.26012,3.54944 -2.54048,7.14344 -3.80065,10.65234c-2.00971,5.61184 -3.96273,11.00082 -5.66855,15.628c-2.25286,6.10616 -4.08025,10.89141 -5.06077,13.124c-4.457,10.12966 -85.89947,-6.07779 -92.38245,-10.12965s-8.10373,-17.8282 -8.9141,-37.27713c-0.00405,-0.1013 -0.00811,-0.2026 -0.00811,-0.30389c-0.10535,-3.92626 0.89545,-9.77309 2.56892,-16.63289c0.83465,-3.42788 1.83951,-7.107 2.95783,-10.92788c1.49921,-5.12562 3.201,-10.49837 4.9797,-15.84683c7.64185,-22.97406 16.64914,-45.42947 16.64914,-45.42947s15.80226,-10.94 21.47486,-18.23338s36.872,-12.966 36.872,-12.966c8.91409,0.40519 29.1734,34.846 37.27713,45.38085s4.86221,49.43278 4.86221,49.43278z"/>
  <circle id="svg_18" fill="#2f2e41" r="3.64668" cy="467.541" cx="102.30521"/>
  <circle id="svg_19" fill="#2f2e41" r="2.02593" cy="471.59286" cx="107.97781"/>
  <path id="svg_20" fill="#f2f2f2" d="m141.4219,550.64063c-1.68559,4.78931 -3.58594,10.17425 -5.543,15.66451l-110.30785,-35.86709c1.49921,-5.12562 3.201,-10.49837 4.9797,-15.84683l110.87115,36.04941z"/>
  <path id="svg_21" fill="#f2f2f2" d="m132.07828,576.95748c-2.00971,5.61184 -3.96273,11.00082 -5.66855,15.628l-106.36543,-34.58665c-0.10535,-3.92626 0.89545,-9.77309 2.56892,-16.63289l109.46506,35.59154z"/>
  <path id="svg_22" stroke-width="3" stroke-miterlimit="10" stroke="#2f2e41" fill="none" d="m102.30521,468.35138s8.10372,35.65639 3.24149,67.26091s12.15558,61.18312 12.15558,61.18312"/>
  <path id="svg_23" stroke-width="3" stroke-miterlimit="10" stroke="#2f2e41" fill="none" d="m107.97781,471.18769s-15.80226,57.53644 -16.20744,65.64016s-6.88817,66.04535 -14.99189,72.12314"/>
  <path id="svg_24" fill="#2f2e41" d="m152.55947,64.74326s-6.32846,-16.454 2.84781,-21.83318l2.53138,7.27773s23.09887,-13.92261 29.1109,-10.75838l-5.69561,7.59415s26.89594,0 28.79448,10.442l-9.49269,0.31642s10.12554,6.64488 10.442,17.40326l-20.25106,1.26569l9.8091,5.69561s-36.705,5.06276 -45.56489,-9.49269l-2.53142,-7.91061z"/>
  <path id="svg_25" fill="#2f2e41" d="m147.07828,65.39372s7.29335,14.5867 17.01782,10.94s0,-17.01782 0,-17.01782l-6.483,-3.24149l-10.53482,9.31931z"/>
  <path id="svg_30" fill="#ffffff" d="m683,335.81039l0,1.02366q-0.03493,3.85593 -0.221,7.67709a170.99032,170.99032 0 0 1 -341.41084,2.23332q-0.349,-5.42629 -0.349,-10.934a170.14342,170.14342 0 0 1 31.44133,-98.83715q2.46012,-3.4896 5.118,-6.85119c1.22134,-1.55872 2.47762,-3.08251 3.74554,-4.59465a171.02253,171.02253 0 0 1 238.29313,-22.61261c2.05889,1.66336 4.08285,3.38488 6.06023,5.14132q2.373,2.11125 4.66444,4.3155a170.52787,170.52787 0 0 1 52.06493,109.06157q0.59324,7.11872 0.59324,14.37714z"/>
  <path id="svg_33" fill="#151961" d="m381.57858,199.12205a0.95129,0.95129 0 0 1 0.23264,0.13959c0.91892,0.75608 -0.23264,2.21008 -0.09306,3.40817c0.16285,1.53543 2.21008,1.87276 3.75714,2.024c1.54705,0.16285 3.50123,1.40747 2.76841,2.78005c-3.88509,1.33768 -7.8167,0.02326 -11.78321,-1.50053a170.1436,170.1436 0 0 0 -31.4413,98.83711q0,5.51356 0.349,10.93408a4.41991,4.41991 0 0 0 1.05851,0.57c1.1632,0.442 2.51251,0.3606 3.58266,0.98872c0.84913,0.50018 1.4191,1.38421 2.26824,1.84949c2.43109,1.32605 5.80437,-1.22136 8.07261,0.36059a20.85731,20.85731 0 0 1 1.66337,1.69828c2.09376,1.81459 5.53683,0.59323 7.95629,1.95417c1.55869,0.8724 2.3613,2.6172 3.1988,4.19915c2.08213,3.95488 5.45541,7.84 9.91046,8.154a26.68761,26.68761 0 0 1 4.21079,0.13958c1.37257,0.31406 2.72189,1.51216 2.50088,2.89637c-0.38386,2.38456 0.791,4.99013 0.47691,7.37469c-0.57,4.362 -6.74656,6.26964 -7.27,10.63164a26.26422,26.26422 0 0 1 -0.16285,2.87311c-0.27917,1.13993 -1.13993,2.07049 -1.44237,3.21043c-0.5816,2.15192 0.96546,4.30384 2.6521,5.74621c1.69827,1.454 3.72224,2.71025 4.6528,4.73422c0.97709,2.15192 0.50018,4.6528 0.81424,6.99083c0.69792,5.10645 5.10645,8.88685 9.64293,11.32957a10.06848,10.06848 0 0 1 3.76877,2.74515c1.1632,1.68664 1.04688,3.90836 1.44236,5.92069c0.95383,4.92034 5.09482,8.97991 5.21114,13.9933c0.08142,3.571 -1.896,6.80472 -3.08248,10.16637a23.46244,23.46244 0 0 0 -1.05851,10.9806a171.80947,171.80947 0 0 0 21.08881,15.29608a6.14415,6.14415 0 0 0 0.8724,-1.95417a3.86492,3.86492 0 0 0 -1.803,-4.00141a9.56227,9.56227 0 0 0 3.33839,-2.14029a3.27477,3.27477 0 0 0 0.60486,-3.699c2.04723,0.2559 4.47832,0.38385 5.82763,-1.18647c1.08178,-1.25625 1.012,-3.14064 0.5816,-4.73422a19.52515,19.52515 0 0 1 -1.1632,-4.81565a86.62334,86.62334 0 0 0 14.21431,-0.47691a9.22747,9.22747 0 0 0 -4.32711,-5.42051c2.14029,-0.3606 4.08284,-2.91964 4.75749,-4.9785a12.68072,12.68072 0 0 0 0.09306,-6.4325a3.42171,3.42171 0 0 1 -0.06979,-1.675a3.29552,3.29552 0 0 1 1.69827,-1.64012q5.30419,-3.0534 10.60838,-6.09516a6.396,6.396 0 0 0 1.69827,-1.24463c1.105,-1.31441 0.9422,-3.28022 0.37223,-4.89707s-1.47727,-3.14064 -1.69827,-4.83891c-0.6514,-5.08319 4.79238,-8.73563 6.63024,-13.528a20.31775,20.31775 0 0 0 1.00035,-5.92069c0.15121,-2.16355 0.16285,-4.66443 -1.4889,-6.04864c-1.59358,-1.33768 -4.0712,-1.03524 -5.73457,-2.27987c-1.5238,-1.13993 -2.04724,-3.33838 -3.71061,-4.25731c-1.51216,-0.8375 -3.39655,-0.30243 -5.08319,-0.69792c-2.95452,-0.68629 -4.81564,-4.09446 -7.84,-4.40853c-1.69828,-0.18611 -3.62919,0.65139 -5.025,-0.33733c-1.233,-0.884 -1.27952,-2.64046 -1.51216,-4.12936a11.53517,11.53517 0 0 0 -9.3056,-9.32886c-1.75643,-0.27917 -3.66408,-0.17448 -5.16461,-1.13994c-1.51216,-0.97708 -2.19844,-2.80331 -3.39654,-4.16425c-1.90765,-2.17519 -4.932,-2.95453 -7.75854,-3.61755q-5.75784,-1.3435 -11.504,-2.69863c-2.0356,-0.48854 -4.66443,-0.74445 -5.76947,1.04688a7.86927,7.86927 0 0 0 -0.67466,2.15192a6.67341,6.67341 0 0 1 -6.258,4.69933a7.39431,7.39431 0 0 0 -4.35036,-3.37328a27.44775,27.44775 0 0 1 -3.53613,-0.8375a4.95427,4.95427 0 0 1 -2.14029,-6.87452a6.17223,6.17223 0 0 0 -1.05851,-7.40958c-1.95418,-1.75643 -4.78075,-2.18682 -7.40959,-2.01234c-0.68628,-1.50052 0.46528,-3.18716 1.69828,-4.28057c1.24462,-1.08178 2.74515,-2.15192 3.01268,-3.7804c0.43039,-2.559 -2.8382,-4.50159 -5.31582,-3.74551c-2.47762,0.76772 -4.05957,3.17554 -5.10645,5.54847a16.73353,16.73353 0 0 1 -2.05886,3.94325a4.042,4.042 0 0 1 -3.90835,1.60521c-2.04724,-0.52344 -2.82658,-2.95453 -3.28023,-5.00176a32.61424,32.61424 0 0 1 -1.09341,-8.38667a10.948,10.948 0 0 1 3.16391,-7.63059c3.38491,-3.11738 8.596,-2.815 13.16742,-2.31477a3.35392,3.35392 0 0 1 0.349,-4.42016a5.02569,5.02569 0 0 1 4.55975,-1.11667a6.256,6.256 0 0 1 3.52449,2.10539c1.30279,1.582 1.675,3.73387 2.6521,5.5252c0.98872,1.803 3.1988,3.33838 5.00176,2.37293c1.57032,-0.83751 1.81459,-3.00106 1.43073,-4.73423c-0.39548,-1.72153 -1.22136,-3.40817 -1.08177,-5.17624c0.26753,-3.36164 3.76877,-5.39724 6.85125,-6.78145s6.607,-3.257 7.09552,-6.607a6.17389,6.17389 0 0 1 0.37222,-1.90765a3.72933,3.72933 0 0 1 1.38421,-1.30278c8.99153,-5.944 18.14592,-11.96933 28.42861,-15.21466c0.53507,-0.17448 0.59323,0.01164 1.13993,-0.11632c0.76771,-0.442 0.25591,-1.66337 -0.47691,-2.15192s-1.7099,-0.8724 -1.896,-1.73316c-0.128,-0.62813 0.24428,-1.25626 0.33733,-1.896a2.36721,2.36721 0 0 0 -3.10574,-2.39619c-0.82587,-1.09341 0.80261,-2.3613 2.12865,-2.73352a58.13863,58.13863 0 0 1 12.15544,-1.97744a2.16447,2.16447 0 0 1 1.38421,0.23264a1.645,1.645 0 0 1 0.10469,2.25661a12.73993,12.73993 0 0 1 -1.84949,1.68664a5.08082,5.08082 0 0 0 -1.32605,5.10644c2.15192,1.09341 4.47832,2.22172 6.86288,1.83786c2.37293,-0.38386 4.47832,-3.05922 3.36165,-5.18787c-1.03525,-1.98907 -4.16425,-2.44272 -4.69933,-4.61791c-0.62812,-2.5474 2.9778,-4.81564 2.16356,-7.30489c-0.349,-1.09341 -1.44237,-1.7448 -2.27988,-2.52415a6.882,6.882 0 0 1 -1.50052,-7.60732a8.66758,8.66758 0 0 1 -7.58407,-2.37293c-1.81459,-1.82623 -3.257,-4.72259 -5.83926,-4.62954c-2.3613,0.06979 -4.3969,2.82658 -6.607,1.98907c-0.5467,-0.20937 -1.11667,-0.62812 -1.64011,-0.38385a1.35575,1.35575 0 0 0 -0.6165,1.012c-0.55833,2.687 0.40712,5.74621 -1.05851,8.07261c-1.59358,2.52414 -5.28093,2.8731 -7.21184,5.153c-1.04688,1.233 -1.454,2.89636 -2.41945,4.19915s-3.00106,2.14029 -4.16426,1.00035a5.73208,5.73208 0 0 0 -1.55869,-6.9792a14.98861,14.98861 0 0 0 -3.44307,-1.675a20.43352,20.43352 0 0 1 -3.85019,-2.14029a3.81527,3.81527 0 0 1 -1.40747,-1.51216a3.47684,3.47684 0 0 1 0.093,-2.39619a9.79355,9.79355 0 0 1 7.78181,-6.44413c1.53542,-0.20937 3.32675,-0.13958 4.35037,-1.31441c0.53507,-0.6165 0.81424,-1.55869 1.60521,-1.803a2.34021,2.34021 0 0 1 1.47727,0.17448c1.91928,0.67465 3.82693,1.34931 5.74621,2.024a3.93612,3.93612 0 0 0 2.04723,0.33732a1.37705,1.37705 0 0 0 1.19809,-1.454c-0.18611,-0.95382 -1.65174,-1.40747 -1.51216,-2.37292a1.50855,1.50855 0 0 1 0.47692,-0.81424a20.55375,20.55375 0 0 1 16.29643,-6.4325c0.72118,1.1981 -0.41875,2.60557 -1.38421,3.61755c-0.95382,1.02362 -1.72154,2.83821 -0.55834,3.61755a3.06427,3.06427 0 0 0 1.5238,0.349a13.29118,13.29118 0 0 1 4.0712,1.233c1.98907,0.86076 3.94324,1.81459 5.85089,2.8382a7.37635,7.37635 0 0 1 0.13959,-3.76876a2.55938,2.55938 0 0 1 3.02432,-1.64012c1.13993,0.442 1.72153,1.95418 2.94289,2.09376c1.61685,0.18612 2.25661,-2.21008 1.582,-3.699s-2.024,-2.72189 -2.12865,-4.362c-0.08143,-1.09341 0.33733,-2.45435 -0.53507,-3.11738a2.31414,2.31414 0 0 0 -1.03525,-0.37222q-10.95735,-2.00652 -21.92632,-4.02467c-1.30279,-0.24428 -3.17554,-0.05816 -3.2337,1.25625c-0.03489,0.74445 0.62813,1.47727 0.33733,2.15192c-0.31406,0.72119 -1.33768,0.663 -2.08213,0.91893a2.827,2.827 0 0 0 -1.62848,2.98942a8.14854,8.14854 0 0 0 1.37258,3.36165c-1.43074,-0.59323 -3.58266,-0.69792 -5.01339,-1.30278a19.296,19.296 0 0 0 -1.25626,-4.82728a1.70385,1.70385 0 0 0 -2.22171,-1.37258c-1.88439,0.2908 -3.76877,0.57 -5.65315,0.86077a2.18661,2.18661 0 0 0 -1.29116,0.50018c-0.73281,0.77934 -0.01163,2.024 -0.03489,3.09411a2.89958,2.89958 0 0 1 -2.245,2.50088a8.46226,8.46226 0 0 1 -3.58265,-0.04653c-2.64047,-0.40712 -5.2693,-0.81424 -7.90976,-1.22136a12.95718,12.95718 0 0 0 5.97884,-4.00141c1.04688,-1.233 1.60522,-3.53613 0.09306,-4.11773a3.60875,3.60875 0 0 0 -1.37258,-0.10468c-3.58265,0.02326 -6.40923,-2.96616 -9.75924,-4.234a9.59326,9.59326 0 0 0 -3.29186,-0.60487l-3.74558,4.59452z"/>
  <path id="svg_34" fill="#151961" d="m686.779,313.51112a4.20005,4.20005 0 0 1 -3.55939,1.68664c-3.64082,-0.31406 -5.17624,-5.56009 -8.78216,-6.15333a1.40537,1.40537 0 0 0 -0.95382,0.09306c-0.53508,0.2908 -0.62813,1.012 -0.663,1.61685c-0.15121,3.001 -0.27917,6.11843 0.89567,8.88685c1.7099,4.04793 6.14169,7.44448 5.21113,11.73668c-5.00176,-2.31476 -7.60733,-7.933 -8.78216,-13.31864c-1.18646,-5.38561 -1.37257,-11.03876 -3.4896,-16.13358c-1.61685,2.05886 -4.99013,0.36059 -6.45576,-1.803c-1.39584,-2.04723 -2.25661,-4.42016 -3.60592,-6.50229c-1.34931,-2.07049 -3.41981,-3.93161 -5.88579,-4.04793c-2.59394,-0.11632 -4.85054,1.66337 -6.828,3.35a15.80206,15.80206 0 0 0 -4.24568,4.72259c-1.38421,2.79168 -1.02362,6.07191 -1.09341,9.17765c-0.06979,3.35 -0.77935,6.89778 -3.07085,9.36376c-2.2915,2.45435 -6.51392,3.31512 -9.03806,1.09341a10.1961,10.1961 0 0 1 -2.52415,-4.54811a221.31754,221.31754 0 0 1 -6.83961,-24.40394c-0.41876,1.88439 -2.08213,4.31547 -3.66408,3.21043a3.26712,3.26712 0 0 1 -0.83751,-1.0934c-2.95453,-4.99013 -8.40993,-7.99119 -13.93513,-9.79415c-5.51357,-1.79133 -11.31794,-2.62883 -16.77335,-4.60627a42.88523,42.88523 0 0 1 -8.71237,-4.33874a6.86049,6.86049 0 0 0 -0.41875,7.00247a5.60935,5.60935 0 0 0 6.30455,2.64046c1.20972,-0.39549 2.23334,-1.233 3.43144,-1.65174c1.19809,-0.40712 2.81494,-0.20938 3.33838,0.95382c0.51181,1.105 -0.2559,2.44272 0.12795,3.60592c0.57,1.75643 3.2337,1.896 4.16426,3.50123a3.241,3.241 0 0 1 -0.8724,3.74551a15.67623,15.67623 0 0 1 -3.51287,2.16355c-3.90835,2.17518 -6.6884,5.88579 -10.1082,8.77053c-3.41981,2.89637 -8.24709,5.00176 -12.31829,3.15227c0.96545,-4.92034 -4.88544,-8.52626 -5.96722,-13.42333c-0.36059,-1.61685 -0.17448,-3.32675 -0.67465,-4.89707c-0.73282,-2.27987 -2.75679,-3.83856 -4.40853,-5.5601a21.85517,21.85517 0 0 1 -5.99048,-15.87768c0.093,-2.024 0.46528,-4.08283 0,-6.06027c-0.45365,-1.96581 -2.09376,-3.87345 -4.11773,-3.792c-4.6179,0.20938 -10.44554,0.55834 -12.865,-3.38491c-0.8724,-1.40747 -1.24463,-3.46634 0.01163,-4.54811a4.39171,4.39171 0 0 1 3.33838,-0.57c3.478,0.33733 6.94431,0.68629 10.42228,1.02361c2.43108,0.23264 5.05992,0.43039 7.15368,-0.8375s3.001,-4.6528 1.05851,-6.15333c-1.40747,-1.09341 -3.94325,-1.03525 -4.362,-2.76841c-0.33733,-1.454 1.26789,-3.09412 0.39549,-4.31548c-0.6165,-0.86076 -2.01234,-0.62812 -2.86148,0.02327a18.69439,18.69439 0 0 1 -2.40782,2.10539c-1.66338,0.86077 -3.64082,0.0349 -5.43214,-0.52344s-4.18752,-0.60486 -5.04829,1.05851c-0.97709,1.84949 0.84913,4.29221 -0.10469,6.15333c-1.27952,2.45435 -5.58336,1.05851 -7.37469,3.17554c-2.04723,2.41945 1.39584,6.04864 0.70955,9.14275a5.69965,5.69965 0 0 1 -5.61825,-0.31407a5.439,5.439 0 0 1 -2.34967,-5.07155c0.16285,-1.39584 0.89567,-2.82657 0.40712,-4.141a4.83418,4.83418 0 0 0 -2.45435,-2.245q-5.05992,-2.80912 -10.11984,-5.595c-0.94219,1.7448 0.24427,3.89672 1.73317,5.21114c1.47726,1.30278 3.33838,2.2915 4.31547,4.013a5.27443,5.27443 0 0 1 -1.97744,6.95593a1.227,1.227 0 0 1 -1.012,0.17448a1.40226,1.40226 0 0 1 -0.65139,-0.8724c-1.7797,-4.57137 -4.46669,-9.073 -8.74727,-11.45752c-4.29221,-2.39619 -10.44553,-1.896 -13.26048,2.117c-0.663,0.95382 -1.11667,2.04723 -1.69827,3.05921c-3.08248,5.36236 -9.71272,7.89813 -15.90094,7.73528a3.06444,3.06444 0 0 1 -1.73317,-0.40712c-1.00035,-0.68628 -0.95383,-2.15192 -0.80261,-3.36164c0.221,-1.70991 0.43038,-3.40818 0.65139,-5.11808a4.099,4.099 0 0 1 1.12831,-2.80332c1.15156,-0.90729 2.80331,-0.33732 4.26894,-0.36059a5.37747,5.37747 0 0 0 4.89707,-3.7804a6.07682,6.07682 0 0 0 -1.69827,-6.04864c-0.663,-0.62813 -1.55869,-1.4191 -1.20973,-2.26824a1.885,1.885 0 0 1 1.31442,-0.884c2.6172,-0.75608 5.39725,-0.95382 7.96792,-1.86112c2.5823,-0.89566 5.08318,-2.73352 5.69968,-5.39725c0.18611,-0.81424 0.26753,-1.803 1.00035,-2.21008a3.23975,3.23975 0 0 1 1.1632,-0.23264a5.66134,5.66134 0 0 0 4.85054,-5.89742c1.233,-0.86077 2.96616,-0.221 4.16426,0.69792c1.18646,0.91893 2.245,2.12865 3.699,2.52414c2.71025,0.74445 5.32745,-1.66337 8.1424,-1.675c1.18646,0 2.40782,0.41876 3.51286,0.01164c1.1283,-0.40712 1.803,-1.5238 2.66373,-2.34967c0.8724,-0.8375 2.38456,-1.33768 3.18717,-0.442c-0.23264,-1.68664 -0.45365,-3.36165 -0.68629,-5.03666a9.90135,9.90135 0 0 0 8.061,-1.46563c-2.93126,-0.98872 -5.85089,-1.97744 -8.78216,-2.96616a1.89514,1.89514 0 0 1 -0.82587,-0.442c-0.63976,-0.68629 0,-1.75643 0.51181,-2.53577c1.24462,-1.87276 1.454,-4.95524 -0.59323,-5.8858c-1.39584,-0.63976 -2.98943,0.128 -4.32711,0.8724c-2.14028,1.18647 -4.28057,2.38456 -6.42086,3.571c-0.19774,1.22136 1.29115,1.91928 2.21008,2.73352a3.70647,3.70647 0 0 1 -2.41946,6.479a4.64331,4.64331 0 0 1 0.82588,3.92c-1.43074,0.10468 -2.87311,0.20937 -4.31548,0.31406a1.85325,1.85325 0 0 1 -1.39584,-0.27917c-0.46528,-0.40712 -0.39548,-1.1283 -0.5118,-1.73317a3.74393,3.74393 0 0 0 -3.16391,-2.75678a10.9223,10.9223 0 0 0 -4.40853,0.40712a2.68616,2.68616 0 0 1 -1.90764,-0.04653a1.903,1.903 0 0 1 -0.74445,-0.95382a4.86365,4.86365 0 0 1 0.97709,-4.67607a26.76673,26.76673 0 0 1 3.67571,-3.38491a21.428,21.428 0 0 0 6.386,-9.8872c2.37292,-1.00035 4.82728,-2.34966 7.21184,-3.35a28.80944,28.80944 0 0 1 5.99048,-2.01234a28.30911,28.30911 0 0 1 5.87416,-0.27917c2.67536,0.04653 5.36235,0.09306 8.03771,0.15122a19.34408,19.34408 0 0 1 7.03736,1.012c2.19845,0.9073 4.141,2.87311 4.29221,5.246a1.61075,1.61075 0 0 1 -0.52344,1.47727a1.885,1.885 0 0 1 -1.012,0.23264c-2.22171,0.06979 -3.1639,0.62813 -5.38561,0.70955c1.40747,1.50053 2.98942,3.08248 5.03665,3.35c3.60592,0.46528 6.19986,-3.2686 7.86323,-6.51392a3.17423,3.17423 0 0 0 3.31512,2.94289a6.685,6.685 0 0 0 2.50088,-0.97709a49.19541,49.19541 0 0 1 23.32216,-6.02537a2.51131,2.51131 0 0 1 1.91928,-2.76842c1.66338,-0.32569 3.15228,1.105 3.95488,2.59394c0.791,1.48889 1.29116,3.21043 2.57068,4.3271c1.26788,1.11667 3.72224,1.05851 4.22241,-0.5467c0.48855,-1.54706 -1.1283,-2.87311 -2.466,-3.792c-1.34931,-0.9073 -2.75679,-2.59394 -1.84949,-3.94325c6.83962,-1.52379 13.73739,-3.036 20.75149,-3.33839a8.83055,8.83055 0 0 0 3.4896,-0.60486a2.71244,2.71244 0 0 0 1.62848,-2.8731a7.93083,7.93083 0 0 1 -8.25872,-3.11738c7.20021,-0.59323 14.73774,-1.11667 21.65878,0.50018l6.06027,5.14134c-1.15156,1.1981 -2.687,2.3264 -1.84948,3.5245a2.5785,2.5785 0 0 0 2.12865,0.73281c1.46563,0.02327 2.93127,0.05816 4.38527,0.05816a170.52828,170.52828 0 0 1 52.06483,109.06163c-2.44272,-0.093 -4.6877,3.00106 -4.37363,5.69968c0.37222,3.129 2.62883,5.64152 4.24568,8.34015a12.70881,12.70881 0 0 1 0.72114,1.36111l-0.221,7.67707z"/>
  <circle id="svg_39" fill="#3f3d56" r="16.55902" cy="228.9214" cx="604.80775"/>
  <circle id="svg_40" fill="#fff" r="21.82779" cy="175.69736" cx="657.99881"/>
  <path id="svg_41" fill="#1a5ef3" d="m680.0738,153.06872a30.86,30.86 0 0 0 -43.63926,0.54048c-11.9014,12.1999 -28.89284,73.81079 -28.89284,73.81079s61.17118,-18.51211 73.07258,-30.712a30.86,30.86 0 0 0 -0.54048,-43.63927zm-32.06129,32.86542a14.301,14.301 0 1 1 20.22307,-0.25047a14.301,14.301 0 0 1 -20.22307,0.25047z"/>
 </g>
</svg>