<svg id="ae7ad495-543d-4c4b-9483-8059c5566fe6" data-name="Layer 1" xmlns="http://www.w3.org/2000/svg" xmlns:xlink="http://www.w3.org/1999/xlink"  viewBox="0 0 1009.54 839.64">
 <defs>
  <linearGradient y2="0.49995" x2="1.0001" y1="0.49995" x1="-0.00028" id="f9d7795c-47ab-4264-adf8-fc9a284cd87a">
   <stop stop-opacity="0.25" stop-color="gray" offset="0"/>
   <stop stop-opacity="0.12" stop-color="gray" offset="0.54"/>
   <stop stop-opacity="0.1" stop-color="gray" offset="1"/>
  </linearGradient>
 </defs>
 <title>hero-globe</title>
 <g>
  <title>Layer 1</title>
  <path id="svg_1" opacity="0.1" fill="#3be5dd" d="m586.55411,188.09c-64.72,-2.25 -126.36,-23.14 -185.22,-46s-117.16,-48.19 -180.33,-60.3c-40.63,-7.79 -87.1,-8.89 -119.83,12.89c-31.51,21 -41.69,57.15 -47.16,90.73c-4.12,25.26 -6.54,51.85 4.74,75.49c7.84,16.42 21.74,30.22 31.36,45.95c33.47,54.72 9.81,122.2 -26.45,175.63c-17,25.07 -36.75,49 -49.88,75.66s-19.2,57.25 -7.71,84.47c11.38,27 38.51,47.24 67.9,61.49c59.69,28.95 130,37.23 198.61,41.92c151.83,10.39 304.46,5.89 456.69,1.39c56.34,-1.67 112.92,-3.36 168.34,-12.07c30.78,-4.84 62.55,-12.51 84.9,-31.05c28.36,-23.53 35.39,-63.37 16.38,-92.88c-31.88,-49.49 -120,-61.78 -142.31,-114.89c-12.26,-29.24 0.33,-61.8 18.16,-88.92c38.24,-58.16 102.33,-109.19 105.7,-175.67c2.32,-45.66 -28.49,-91.39 -76.13,-113c-49.93,-22.64 -119.18,-19.8 -156,17.69c-37.95,38.6 -104.61,53.45 -161.76,51.47z"/>
  <ellipse id="svg_2" opacity="0.1" fill="#2caeba" ry="41.12" rx="303.97" cy="759.68" cx="510.49412"/>
  <path id="svg_3" fill="#3be5dd" d="m360.01411,637.26s21,-3.36 33.6,11.48c0,0 -9.24,7.28 -29.12,-2.8l-4.48,-8.68z"/>
  <path id="svg_4" fill="#3be5dd" d="m357.77411,636.93s-13.4,16.58 -6.83,34.85c0,0 10.92,-4.37 12.11,-26.63l-5.28,-8.22z"/>
  <path id="svg_5" fill="#3be5dd" d="m345.77411,609.82s8.4,-15.4 42,6.16c0,0 -4.48,10.36 -19.32,9.52s-18.81,-7.56 -22.68,-15.68z"/>
  <path id="svg_6" fill="#3be5dd" d="m343.56411,608.71s-17.43,-2 -19.12,37.9c0,0 11.05,2.3 18.9,-10.33s4.6,-19.69 0.22,-27.57z"/>
  <path id="svg_7" fill="#3be5dd" d="m333.40411,576.89s9.8,-27.17 45.37,-7.85c0,0 -8.12,24.93 -41.73,17.09l-3.64,-9.24z"/>
  <path id="svg_8" fill="#3be5dd" d="m322.48411,536.28s18.48,-27.44 51.25,-2c0,0 -11.48,25.76 -48.45,11.76l-2.8,-9.76z"/>
  <path id="svg_9" fill="#3be5dd" d="m318.56411,497.64s21.56,-25.2 54,0c0,0 -20.45,22.12 -54,6.44l0,-6.44z"/>
  <path id="svg_10" fill="#3be5dd" d="m315.20411,460.12s21.84,-26.33 52.93,-1.4c0,0 -24.65,23.24 -52.93,7.56l0,-6.16z"/>
  <path id="svg_11" fill="#3be5dd" d="m317.16411,426.79s23,-33.88 52.09,-10.92c0,0 -24.65,29.13 -52.09,17.36l0,-6.44z"/>
  <path id="svg_12" fill="#3be5dd" d="m322.48411,387.87s24.36,-33.6 52.65,-7.84c0,0 -28.85,29.12 -52.65,14l0,-6.16z"/>
  <path id="svg_13" fill="#3be5dd" d="m330.61411,353.08s28.83,-31.57 54,-19c0,0 -30.06,33.53 -55.26,27.37l1.26,-8.37z"/>
  <path id="svg_14" fill="#3be5dd" d="m340.68411,320.11s33.33,-38.65 52.65,-25.77c0,0 -24.52,30 -55,33.05l2.35,-7.28z"/>
  <path id="svg_15" fill="#3be5dd" d="m355.23411,281.85s29.14,-31.58 50.42,-23.74c0,0 -24.92,32.77 -54.33,33.61l3.91,-9.87z"/>
  <path id="svg_16" fill="#3be5dd" d="m368.41411,246.07s32.2,-30.24 46.2,-24.92c0,0 -23.24,33.6 -47.6,31.64l1.4,-6.72z"/>
  <path id="svg_17" fill="#2caeba" d="m381.29411,213.03s27.72,-36.12 42.84,-33.32c0,0 -16.8,32.2 -42.84,37l0,-3.68z"/>
  <path id="svg_18" fill="#2caeba" d="m395.26411,168.51s24.51,-27.7 37.74,-27.63c0,0 -19.34,37 -38.74,36.66l1,-9.03z"/>
  <path id="svg_19" fill="#3be5dd" d="m403.55411,138.82l23.66,-57.68s1.19,52.14 -26.68,68.38l3.02,-10.7z"/>
  <path id="svg_20" fill="#3be5dd" d="m413.15411,75.21s3.92,-48.16 1.4,-52.08c0,0 16.93,40 -1.56,73.36l0.16,-21.28z"/>
  <path id="svg_21" fill="#3be5dd" d="m332.49411,576.24s-24.55,-15.21 -40.43,22c0,0 21.84,14.5 43.31,-12.51l-2.88,-9.49z"/>
  <path id="svg_22" fill="#3be5dd" d="m321.70411,534.73s-30.1,-13.73 -44.71,25.12c0,0 23.26,16 47.45,-15.3l-2.74,-9.82z"/>
  <path id="svg_23" fill="#3be5dd" d="m317.16411,499.95s-21.56,-25.2 -54,0c0,0 20.44,22.12 54,6.44l0,-6.44z"/>
  <path id="svg_24" fill="#3be5dd" d="m314.47411,460.12s-21.85,-26.33 -52.93,-1.4c0,0 24.64,23.24 52.93,7.56l0,-6.16z"/>
  <path id="svg_25" fill="#3be5dd" d="m317.16411,427.75s-15.32,-37.95 -48.62,-21.63c0,0 18,33.66 47.27,27.93l1.35,-6.3z"/>
  <path id="svg_26" fill="#3be5dd" d="m324.41411,387.68s-15.22,-38.61 -49,-20.71c0,0 20.68,35.39 47.5,26.68l1.5,-5.97z"/>
  <path id="svg_27" fill="#3be5dd" d="m333.85411,353.28s-6,-42.34 -33.95,-46.13c0,0 5.93,44.64 30.22,53.75l3.73,-7.62z"/>
  <path id="svg_28" fill="#3be5dd" d="m341.40411,320.18s-2.35,-51 -25.5,-52.77c0,0 0.78,38.7 22.89,60l2.61,-7.23z"/>
  <path id="svg_29" fill="#3be5dd" d="m357.64411,280.39s-6.91,-42.4 -29,-47.59c0,0 2.74,41.07 26.81,58l2.19,-10.41z"/>
  <path id="svg_30" fill="#3be5dd" d="m371.03411,246.38s-0.24,-44.18 -13.74,-50.67c0,0 -8.37,40 9.83,56.31l3.91,-5.64z"/>
  <path id="svg_31" fill="#3be5dd" d="m382.32411,212.51s-1.9,-45.5 -15.87,-51.91c0,0 -4.79,36 13.77,54.88l2.1,-2.97z"/>
  <path id="svg_32" fill="#3be5dd" d="m397.22411,172.11s-0.09,-37 -10.07,-45.68c0,0 -9.92,40.54 4.86,53.12l5.21,-7.44z"/>
  <path id="svg_33" fill="#3be5dd" d="m402.37411,137l-9.7,-61.59s-13.2,50.47 10.16,72.7l-0.46,-11.11z"/>
  <path id="svg_34" fill="#3be5dd" d="m404.27411,75.79s-24.93,-41.39 -24.41,-46c0,0 2.64,43.4 34,65l-9.59,-19z"/>
  <path id="svg_35" fill="#3be5dd" d="m407.19411,63.57s-23.52,-58.81 -34.16,-63.57c0,0 33.6,17.08 36.12,61.89l-1.96,1.68z"/>
  <path id="svg_36" fill="#3be5dd" d="m394.13411,177.86l-1.61,-0.49c19.85,-64.73 24.81,-106 13.95,-116.34l1.16,-1.22c11.5,10.91 6.84,51.7 -13.5,118.05z"/>
  <path id="svg_37" fill="#3be5dd" d="m339.47411,329.38l-2.37,-0.84c2.1,-5.93 4.37,-11.95 6.75,-17.89c20.72,-51.64 38.36,-99.67 49.67,-136.55l2.07,-1c-11.33,36.95 -28.65,86.83 -49.4,138.53c-2.37,5.88 -4.63,11.88 -6.72,17.75z"/>
  <path id="svg_38" fill="#3be5dd" d="m389.56411,685.71c-0.32,-0.36 -32.5,-36.58 -54.92,-98.44a364.43,364.43 0 0 1 -21.7,-112.76c-1.54,-48.13 8.56,-101.87 25.86,-150.68l1.88,2.2c-38.83,109.56 -23.4,203.45 -2.94,260c22.2,61.29 54,97.13 54.32,97.48l-2.5,2.2z"/>
  <rect id="svg_39" fill="#3a3768" ry="2.29" rx="2.29" height="73.02" width="8.86" y="268.51" x="669.80412"/>
  <rect id="svg_40" fill="#3be5dd" ry="2.29" rx="2.29" height="24.04" width="4.97" y="211.3" x="375.37412"/>
  <rect id="svg_41" fill="#3be5dd" ry="2.29" rx="2.29" height="41.84" width="5.6" y="255.32" x="375.19412"/>
  <rect id="svg_42" fill="#3be5dd" ry="2.29" rx="2.29" height="42.2" width="5.33" y="311.8" x="375.28412"/>
  <rect id="svg_43" fill="#3a3768" ry="38.99" rx="38.99" height="602.39" width="296.4" y="131.86" x="378.18412"/>
  <path id="svg_44" fill="#3be5dd" d="m632.77411,147.51l-34,0l0,4.09a19.38,19.38 0 0 1 -19.39,19.38l-108.13,0a19.38,19.38 0 0 1 -19.39,-19.38l0,-4.09l-31.83,0a23.54,23.54 0 0 0 -23.54,23.54l0,523.97a23.54,23.54 0 0 0 23.54,23.54l212.74,0a23.54,23.54 0 0 0 23.54,-23.54l0,-523.93a23.54,23.54 0 0 0 -23.54,-23.58z"/>
  <rect id="svg_45" fill="#e6e8ec" ry="3.87" rx="3.87" height="8.4" width="41.39" y="149.85" x="497.79412"/>
  <circle id="svg_46" fill="#e6e8ec" r="4.77" cy="154.05" cx="550.21412"/>
  <path id="svg_47" fill="#3be5dd" d="m777.20411,105.44s-84.2,-5.08 -74.28,53.92c0,0 -2,10.43 7.48,15.16c0,0 0.15,-4.37 8.64,-2.88a39.5,39.5 0 0 0 9.15,0.44a19.06,19.06 0 0 0 11.18,-4.57l0,0s23.67,-9.78 32.87,-48.46c0,0 6.81,-8.44 6.54,-10.61l-14.21,6.07s4.86,10.25 1,18.77c0,0 -0.46,-18.4 -3.19,-18c-0.55,0.08 -7.38,3.55 -7.38,3.55s8.35,17.85 2.05,30.83c0,0 2.39,-22 -4.66,-29.54l-10,5.84s9.76,18.44 3.14,33.49c0,0 1.7,-23.08 -5.25,-32.07l-9.06,7.07s9.17,18.17 3.58,30.65c0,0 -0.73,-26.86 -5.54,-28.89c0,0 -7.93,7 -9.14,9.86c0,0 6.28,13.2 2.38,20.16c0,0 -2.39,-17.9 -4.35,-18c0,0 -7.9,11.86 -8.72,20c0,0 0.34,-12.09 6.81,-21.12c0,0 -7.64,1.31 -12.1,6.26c0,0 1.23,-8.38 14.05,-9.12c0,0 6.53,-9 8.27,-9.54c0,0 -12.74,-1.07 -20.47,2.36c0,0 6.8,-7.91 22.81,-4.31l8.95,-7.31s-16.78,-2.29 -23.9,0.24c0,0 8.19,-7 26.31,-1.9l9.74,-5.82s-14.31,-3.08 -22.83,-2c0,0 9,-4.85 25.69,0.41l7,-3.13s-10.48,-2.06 -13.55,-2.39s-3.23,-1.17 -3.23,-1.17a36.35,36.35 0 0 1 19.69,2.19s14.78,-5.51 14.53,-6.44z"/>
  <path id="svg_48" fill="#3be5dd" d="m690.83411,79.2s-38,-2.29 -33.56,24.37c0,0 -0.89,4.71 3.38,6.85c0,0 0.07,-2 3.91,-1.31a17.51,17.51 0 0 0 4.13,0.2a8.56,8.56 0 0 0 5.05,-2.08l0,0s10.7,-4.42 14.86,-21.9c0,0 3.07,-3.81 2.95,-4.79l-6.42,2.74s2.19,4.63 0.47,8.48c0,0 -0.21,-8.31 -1.44,-8.12c-0.25,0 -3.34,1.61 -3.34,1.61s3.78,8.07 0.93,13.93c0,0 1.08,-9.94 -2.11,-13.35l-4.52,2.68s4.41,8.33 1.42,15.13c0,0 0.77,-10.43 -2.37,-14.49l-4.09,3.2s4.14,8.21 1.62,13.85c0,0 -0.34,-12.14 -2.51,-13.06c0,0 -3.58,3.16 -4.13,4.46c0,0 2.84,6 1.08,9.11c0,0 -1.08,-8.09 -2,-8.13c0,0 -3.57,5.36 -3.94,9a19.52,19.52 0 0 1 3.08,-9.54a10.76,10.76 0 0 0 -5.47,2.83s0.56,-3.79 6.35,-4.12c0,0 3,-4.07 3.74,-4.32c0,0 -5.76,-0.48 -9.25,1.07c0,0 3.07,-3.57 10.3,-1.95l4,-3.3s-7.59,-1 -10.8,0.11c0,0 3.7,-3.16 11.89,-0.86l4.4,-2.63s-6.47,-1.39 -10.32,-0.89c0,0 4.07,-2.19 11.61,0.18l3.15,-1.41s-4.74,-0.93 -6.13,-1.08s-1.46,-0.53 -1.46,-0.53a16.39,16.39 0 0 1 8.9,1s6.76,-2.52 6.64,-2.94z"/>
  <rect id="svg_49" opacity="0.1" height="439.24" width="206.95" y="204.87" x="422.91412"/>
  <path id="svg_50" fill="url(#f9d7795c-47ab-4264-adf8-fc9a284cd87a)" d="m623.52411,766.73s-4.88,-11.36 -7.06,-16.6c-1.23,-3 -3.31,-3.5 -4.9,-3.43l0.09,-1l0.39,-4.73l0.08,-1c3.77,-0.79 7,-1.41 7,-1.41l-2.35,-121.32s-1,-1.28 -3.42,-9c-1.2,-3.85 -7,-8.58 -12.42,-12.35c-0.85,-0.59 -1.68,-1.15 -2.5,-1.69a62.39,62.39 0 0 1 6.21,-4.58c3.08,-1.79 4.1,-12 4.1,-12l-0.51,1c0.51,-1 0,-27.07 0,-27.07l-1.8,-27.06s-1.28,-32.17 -11.28,-40.6s-22.63,-11.38 -22.63,-11.38l-7,-1.8l0,0l-12.9,-3.31c-0.36,-0.59 -0.71,-1.21 -1,-1.86c-0.13,-0.25 -0.25,-0.51 -0.37,-0.77a30.2,30.2 0 0 0 12.75,-24.65a29.73,29.73 0 0 0 -0.39,-4.84c0,-0.3 -0.11,-0.61 -0.17,-0.91a25.2,25.2 0 0 0 3,-2.41a13.63,13.63 0 0 0 3.66,-4.49l0,0a7.57,7.57 0 0 0 0.34,-1.05c0,-0.1 0,-0.2 0.06,-0.31s0.09,-0.53 0.12,-0.8c0,-0.1 0,-0.2 0,-0.3c0,-0.29 0,-0.59 0,-0.88c0,-0.07 0,-0.14 0,-0.22c0,-0.33 -0.05,-0.66 -0.1,-1a0.13,0.13 0 0 0 0,-0.06l0,0a17.21,17.21 0 0 0 -0.9,-3.4c-1,-2.58 -2.3,-5 -2.77,-7.75c-0.58,-3.25 0.09,-6.8 -1.46,-9.72a8.67,8.67 0 0 0 -6.09,-4.19a14.35,14.35 0 0 0 -7.52,0.86a10.7,10.7 0 0 1 -3.71,1a7.75,7.75 0 0 1 -2.71,-0.66a40.19,40.19 0 0 1 -8.4,-4.51a40.22,40.22 0 0 0 -6,-3.92a8.12,8.12 0 0 0 -6.92,-0.28c-3.7,1.88 -4.4,7.12 -7.84,9.43c-2.37,1.6 -5.46,1.44 -8.32,1.54s-6.1,0.81 -7.51,3.29c-1,1.72 -0.76,3.77 -0.57,5.78l0.06,0.68c0,0.24 0,0.49 0.06,0.73a18.37,18.37 0 0 1 -1.13,7.56c-1.38,3.66 -4,7.27 -3.91,11l0,0a7.66,7.66 0 0 0 0.23,1.76a8.45,8.45 0 0 0 0.28,0.85l0,0a37.24,37.24 0 0 0 1.85,3.61l0.09,0.16c0.07,0.14 0.14,0.28 0.2,0.42s0.18,0.38 0.25,0.57s0.08,0.19 0.11,0.28s0.13,0.37 0.18,0.56a5.36,5.36 0 0 1 0.21,1.74a16.2,16.2 0 0 0 -0.19,2.29a1.68,1.68 0 0 0 1.34,1.63a2.23,2.23 0 0 0 1.16,-0.36a18.57,18.57 0 0 0 2.55,-1.75c0,0.32 0,0.64 0.06,1a30.26,30.26 0 0 0 9.09,18.83c0,0.31 0,0.63 -0.07,1s-0.05,0.72 -0.07,1.09l0,0l-11.2,3.52s0.06,0.2 0.18,0.54l-1.18,0.47l0,0c-5.81,2.35 -12.28,5.27 -15.9,7.92c-1.6,1.16 -3.06,2.11 -4.37,2.9a25,25 0 0 0 -10.36,12.55l-0.15,0.38c-1,2.29 -5.9,17.87 -5.9,17.87s-3.59,8.68 -4.11,14.3c0,0 -5.9,18.63 -4.36,30.89c0,0 -4.62,17.62 -2.82,20.42c0,0 -1.84,7.58 6.24,15.21c-0.59,0.36 -1.23,0.75 -1.9,1.18c-6.26,3.94 -15.29,10.33 -16.83,15.26c-2.39,7.67 -3.42,9 -3.42,9l-2.42,121.13s3.23,0.62 7,1.4l0.08,1l0.39,4.72l0.09,1c-1.59,-0.07 -3.67,0.48 -4.9,3.44c-2.19,5.23 -7,16.58 -7,16.58s-10.77,10 -4.24,19.28a6.68,6.68 0 0 0 1,1.16c4.69,4.26 14.69,1.53 21.8,-1.25a21.26,21.26 0 0 0 9,-7.26a3.42,3.42 0 0 1 2.4,-1.33a9.8,9.8 0 0 0 4.47,-1.95a6,6 0 0 0 2.46,-5a0.76,0.76 0 0 1 0,-0.15l-0.63,-14.23s-0.77,-9.94 -3.22,-9.3l-0.63,0.15l-0.17,-1l0,0l-0.33,-1.93l-0.17,-1l1.36,0s0.34,-11.24 4.45,-20.08s6.81,-80.25 6.81,-80.25s50.87,0.83 52.57,-3.94l0,0c1,0 2.09,0 3.13,-0.07c1.71,4.77 49.72,5 49.72,5s2.73,71.49 6.83,80.34a40.82,40.82 0 0 1 2.15,5.86l0,0a65.41,65.41 0 0 1 2.31,14.21l1.36,0l-0.18,1l-0.33,1.92l-0.17,1l-0.65,-0.15c-2.43,-0.63 -3.2,9.31 -3.2,9.31l-0.65,14.32a5.81,5.81 0 0 0 2.38,5a10,10 0 0 0 4.55,2a3.34,3.34 0 0 1 2.4,1.32a21.32,21.32 0 0 0 9,7.26c7.68,3 18.72,5.93 22.82,0.1c6.58,-9.3 -4.19,-19.26 -4.19,-19.26zm-129.3,-178.34l0,0l0.12,0l-0.12,0zm80.35,-40.88s1.29,4.85 3.59,7.4s1.16,18.39 1.16,18.39a14.2,14.2 0 0 0 -2.68,0.43c-1.77,-10.53 -3.4,-22.22 -2.07,-26.22z"/>
  <polygon id="svg_51" fill="#8e6f7f" points="463.9641103744507,747.1199948883057 443.8541250228882,749.1199948883057 443.29412746429443,742.3900144195557 442.90411281585693,737.7600095367432 442.3541250228882,730.9899900054932 461.3541250228882,731.9899900054932 462.86410427093506,740.6799924468994 463.1841115951538,742.5700070953369 463.1941213607788,742.5700070953369 463.9641103744507,747.1199948883057 "/>
  <polygon id="svg_52" fill="#8e6f7f" points="610.4140615463257,731.9999997711182 609.8640737533569,738.7600095367432 609.4840688705444,743.3900144195557 608.9140615463257,750.1199948883057 588.7940664291382,748.1199948883057 589.5941152572632,743.5700070953369 589.9041128158569,741.6900022125244 591.4140615463257,732.9999997711182 610.4140615463257,731.9999997711182 "/>
  <path id="svg_53" fill="#5f5570" d="m589.10411,634.61l-59.8,2.81q-4.08,0.2 -8.16,0l-57.13,-2.8l0,-45.26l125.09,0l0,45.25z"/>
  <path id="svg_54" opacity="0.1" d="m589.10411,634.61l-59.8,2.81q-4.08,0.2 -8.16,0l-57.13,-2.8l0,-45.26l125.09,0l0,45.25z"/>
  <path id="svg_55" fill="#eaeaf2" d="m512.52411,467.42s-19.92,6.69 -27.42,12.19c-1.56,1.14 -3,2.08 -4.26,2.85a24.4,24.4 0 0 0 -10.07,12.28c-0.05,0.14 -0.1,0.26 -0.15,0.37c-1,2.25 -5.75,17.5 -5.75,17.5s-3.5,8.5 -4,14s28.5,20.25 28.5,20.25s-14,30.5 -7.75,38.25s97.5,11.5 95.5,0s-5.5,-30.5 -3.75,-35.75l31,-22.5s-1.25,-31.5 -11,-39.75s-22,-11.25 -22,-11.25l-19.41,-5s-6.84,17 -14.34,19.25s-23.93,-8.14 -25.1,-22.69z"/>
  <path id="svg_56" opacity="0.1" d="m540.50411,496.05s-8.46,7.06 -12.9,0c0,0 -4,11.94 0,15.94l-0.15,0.81l-0.71,3.56l-9.26,77l7.62,13.15l13.87,-17.4l-1.12,-72l-0.5,-4.13l-0.12,-1l2.37,0s6.29,-10.87 0.9,-15.93z"/>
  <path id="svg_57" opacity="0.1" d="m542.50411,496.05s-8.46,7.06 -12.9,0c0,0 -4,11.94 0,15.94l-0.15,0.81l-0.71,3.56l-9.26,77l7.62,13.15l13.87,-17.4l-1.12,-72l-0.5,-4.13l-0.12,-1l2.37,0s6.29,-10.87 0.9,-15.93z"/>
  <polygon id="svg_58" fill="#bc8487" points="539.9740591049194,588.1199948883057 526.1041250228882,605.4899900054932 518.4641103744507,592.4099729156494 527.7341299057007,515.3699948883057 528.4440908432007,511.8099973297119 528.6041250228882,510.98999000549315 529.8541250228882,507.74999977111815 538.2341299057007,510.98999000549315 538.3541250228882,511.98999000549315 538.8541250228882,516.1199948883057 539.9740591049194,588.1199948883057 "/>
  <path fill-opacity="0" fill="#8e6f7f" id="svg_59" opacity="0.1" d="m462.86411,740.67a67.93,67.93 0 0 1 -12.85,-1.31c-2.09,-0.52 -4.71,-1.1 -7.1,-1.61l-0.56,-6.77l19,1l1.51,8.69z"/>
  <path id="svg_60" fill="#3a3768" d="m526.25411,637.51c-1.66,4.67 -51.24,3.85 -51.24,3.85s-2.66,70 -6.66,78.67s-4.34,19.66 -4.34,19.66s-8.66,0 -14,-1.33s-14,-3 -14,-3l2.34,-118.75s1,-1.25 3.33,-8.76c1.5,-4.83 10.3,-11.09 16.39,-15c3.4,-2.14 5.94,-3.54 5.94,-3.54l29.58,1.2l18.26,0.74s16.07,41.59 14.4,46.26z"/>
  <path id="svg_61" opacity="0.1" d="m463.97411,747.11l-20.12,2l-0.57,-6.73a6,6 0 0 1 2.19,0.48c3.67,2.64 14.16,0.54 17.71,-0.3l0,0l0.79,4.55z"/>
  <path id="svg_62" fill="#3a3768" d="m467.77411,766.56a5.87,5.87 0 0 1 -2.41,4.89a9.55,9.55 0 0 1 -4.35,1.91a3.25,3.25 0 0 0 -2.33,1.3a20.87,20.87 0 0 1 -8.8,7.11c-6.93,2.72 -16.68,5.39 -21.25,1.22a6.32,6.32 0 0 1 -1,-1.13c-6.37,-9.12 4.13,-18.88 4.13,-18.88s4.74,-11.12 6.87,-16.24a5,5 0 0 1 6.87,-2.88c4,2.88 16.13,0.12 18.5,-0.49s3.13,9.11 3.13,9.11l0.64,13.93a0.76,0.76 0 0 0 0,0.15z"/>
  <path id="svg_63" opacity="0.1" d="m610.42411,731.99l-0.56,6.76c-2.39,0.51 -5,1.09 -7.11,1.61a68.11,68.11 0 0 1 -12.84,1.32l1.51,-8.69l19,-1z"/>
  <path id="svg_64" fill="#3a3768" d="m616.77411,736.36s-8.66,1.67 -14,3s-14,1.33 -14,1.33s-0.33,-11 -4.33,-19.66s-6.67,-78.67 -6.67,-78.67s-46.78,-0.27 -48.45,-4.94s20.39,-45 20.39,-45l13.45,-0.7l25.61,-1.36s5,2.72 10.24,6.39s10.93,8.33 12.1,12.1c2.33,7.51 3.33,8.76 3.33,8.76l2.33,118.75z"/>
  <path id="svg_65" opacity="0.1" d="m609.48411,743.38l-0.56,6.73l-20.13,-2l0.8,-4.55c3.55,0.85 14,2.94 17.7,0.3a6,6 0 0 1 2.19,-0.48z"/>
  <path id="svg_66" fill="#3a3768" d="m607.29411,744.86a5,5 0 0 1 6.88,2.88c2.12,5.12 6.87,16.25 6.87,16.25s10.5,9.75 4.13,18.87c-4,5.72 -14.76,2.85 -22.24,-0.09a20.74,20.74 0 0 1 -8.8,-7.11a3.26,3.26 0 0 0 -2.34,-1.3a9.81,9.81 0 0 1 -4.44,-2a5.72,5.72 0 0 1 -2.31,-4.88l0.63,-14s0.75,-9.73 3.12,-9.12s14.5,3.38 18.5,0.5z"/>
  <path id="svg_67" fill="#ffc4d0" d="m555.60411,475.86l-20.19,21.4l-0.56,0.6l-0.73,-0.43c-4.22,-2.5 -25.33,-15.24 -23.52,-19.07c1,-2.18 1.59,-6.72 1.9,-10.63c0,-0.47 0.06,-0.93 0.1,-1.38c0.2,-3.09 0.25,-5.49 0.25,-5.49s38,-6.5 36.5,0c-0.61,2.63 0.3,5.59 1.59,8.18c0.38,0.75 0.8,1.46 1.21,2.13a33,33 0 0 0 3.45,4.69z"/>
  <path id="svg_68" opacity="0.1" d="m550.94411,469.04a29.65,29.65 0 0 1 -38.34,-2.69c0.2,-3.09 0.25,-5.49 0.25,-5.49s38,-6.5 36.5,0c-0.58,2.65 0.3,5.59 1.59,8.18z"/>
  <path id="svg_69" fill="#ffc4d0" d="m563.01411,444.15a29.67,29.67 0 0 1 -59.24,2.82q-0.12,-1.4 -0.12,-2.82a29.67,29.67 0 1 1 59.33,0l0.03,0z"/>
  <path id="svg_70" opacity="0.1" d="m562.64411,439.41a7.1,7.1 0 0 1 -5.58,1.51c-4.58,-1 -6.15,-8 -10.83,-8.48s-7.79,6 -12.53,5.87c-2,-0.05 -3.8,-1.36 -5.64,-2.27c-3.22,-1.59 -8.52,-2.56 -12,-1.36c-5.23,1.79 -7,6.63 -10.34,10.48a15.25,15.25 0 0 1 -1.87,1.81q-0.12,-1.4 -0.12,-2.82a29.67,29.67 0 0 1 59,-4.74l-0.09,0z"/>
  <path id="svg_71" fill="#8e6f7f" d="m528.06411,435.05c1.84,0.9 3.6,2.22 5.64,2.27c4.73,0.12 7.82,-6.39 12.52,-5.88s6.25,7.45 10.85,8.48c3.09,0.7 6,-1.61 8.31,-3.76a13.23,13.23 0 0 0 3.57,-4.39c1,-2.48 0.48,-5.34 -0.45,-7.86s-2.24,-4.94 -2.7,-7.59c-0.56,-3.18 0.09,-6.66 -1.42,-9.52a8.43,8.43 0 0 0 -5.94,-4.1a14,14 0 0 0 -7.33,0.83a10.37,10.37 0 0 1 -3.61,1a7.64,7.64 0 0 1 -2.65,-0.65a39.13,39.13 0 0 1 -8.18,-4.41a38.35,38.35 0 0 0 -5.83,-3.84a7.86,7.86 0 0 0 -6.74,-0.27c-3.6,1.84 -4.29,7 -7.64,9.23c-2.31,1.56 -5.32,1.4 -8.1,1.51s-6,0.78 -7.32,3.21c-1.18,2.09 -0.59,4.66 -0.44,7.05a18.1,18.1 0 0 1 -1.11,7.4c-1.55,4.14 -4.7,8.22 -3.58,12.5c0.73,2.81 3.25,5.14 3.1,8a15.25,15.25 0 0 0 -0.19,2.23a1.65,1.65 0 0 0 1.31,1.6a2,2 0 0 0 1.12,-0.36a16.72,16.72 0 0 0 4.41,-3.57c3.38,-3.86 5.13,-8.69 10.36,-10.48c3.53,-1.17 8.82,-0.23 12.04,1.37z"/>
  <path id="svg_72" fill="#ffc4d0" d="m562.47411,609.61l-5.4,1.47l-12.47,3.43a30.13,30.13 0 0 1 -9.59,4.77c-7.63,1.93 -12.56,-2.27 -16.66,-8.77c-1.65,-2.6 -0.82,-4.68 1.34,-6.31c5.2,-3.93 18.06,-5.21 22,-4.69a16.46,16.46 0 0 0 7.59,-1.18a29.4,29.4 0 0 0 4.91,-2.32l8.28,13.6z"/>
  <path id="svg_73" opacity="0.1" d="m562.47411,609.61l-5.4,1.47c-1.55,-4.67 -4.1,-10.53 -7.75,-12.78a29.4,29.4 0 0 0 4.91,-2.32l8.24,13.63z"/>
  <path id="svg_74" opacity="0.1" d="m598.99411,596.75c-2.24,1.81 -4.14,3.46 -4.14,3.46s-26,8.15 -31,18.4c0,0 -4,-20 -12.5,-20.25c0,0 9.15,-3.59 11.79,-6.66l25.63,-1.34s5,2.72 10.22,6.39z"/>
  <path id="svg_75" fill="#eaeaf2" d="m598.60411,518.36l5.75,8.5l1.75,26.5s0.5,25.5 0,26.5l0.5,-1s-1,10 -4,11.75s-9.75,7.6 -9.75,7.6s-26,8.15 -31,18.4c0,0 -4,-20 -12.5,-20.25c0,0 12.75,-5 12.5,-8.25c0,0 9.75,-8.75 10.5,-11s5.62,-2.5 5.62,-2.5s1.13,-15.5 -1.12,-18s-3.5,-7.25 -3.5,-7.25l25.25,-31z"/>
  <path id="svg_76" opacity="0.1" d="m535.01411,619.25c-7.63,1.93 -12.56,-2.27 -16.66,-8.77c-1.65,-2.6 -0.82,-4.68 1.34,-6.31l0.78,0.31s13.75,5.96 14.54,14.77z"/>
  <path id="svg_77" fill="#ffc4d0" d="m531.85411,627.24c-9,12.5 -25.75,-4.88 -27,-8.38c-0.45,-1.27 -2.16,-2.4 -4.13,-3.31a44.58,44.58 0 0 0 -7.75,-2.57l14.88,-12.12l2.85,1.14l8.77,3.51s21.38,9.23 12.38,21.73z"/>
  <path id="svg_78" opacity="0.1" d="m510.70411,602c-8.2,3.9 -9.95,9.51 -10,13.55a44.58,44.58 0 0 0 -7.75,-2.57l14.88,-12.12l2.87,1.14z"/>
  <path id="svg_79" opacity="0.1" d="m497.60411,623.61s-24,-19 -35.5,-27.25a28.12,28.12 0 0 1 -4,-3.46c3.4,-2.14 5.94,-3.54 5.94,-3.54l29.58,1.2c0.79,1.37 1.26,2.3 1.26,2.3l16,10.5c-19.28,6.25 -13.28,20.25 -13.28,20.25z"/>
  <path id="svg_80" fill="#eaeaf2" d="m465.60411,523.86l-4.75,2.75s-5.75,18.25 -4.25,30.25c0,0 -4.5,17.25 -2.75,20c0,0 -2.25,9.25 9.25,17.5s35.5,27.25 35.5,27.25s-6,-14 13.25,-20.25l-16,-10.5s-5.37,-10.66 -10.5,-13c0,0 -4,-4 -1.5,-6.75s4.5,-5.75 4.5,-8.5s1,-15.75 1,-15.75l3,-14l-26.75,-9z"/>
  <path id="svg_81" opacity="0.1" d="m538.35411,511.98l-9.75,0a1.29,1.29 0 0 1 -0.16,-0.18l0.16,-0.82l1.25,-3.24l8.38,3.24l0.12,1z"/>
  <path id="svg_82" fill="#bc8487" d="m541.50411,495.05s-8.46,7.06 -12.9,0c0,0 -4,11.94 0,15.94l12,0s6.29,-10.88 0.9,-15.94z"/>
  <path id="svg_83" opacity="0.1" d="m552.94411,471.86l12.6,3.25s-11.94,31 -14.57,31l-15.12,-7.25l17.09,-27z"/>
  <path id="svg_84" opacity="0.1" d="m555.60411,475.86l-20.19,21.4l-0.56,0.6l-0.73,-0.43l17.65,-26.92l0.43,0.71a33,33 0 0 0 3.4,4.64z"/>
  <path id="svg_85" fill="#eaeaf2" d="m551.94411,470.86l12.6,3.25s-11.94,31 -14.57,31l-15.12,-7.25l17.09,-27z"/>
  <path id="svg_86" opacity="0.1" d="m511.52411,468.42l-10.92,3.44s10.75,32.5 13.75,34.25l19.5,-7.25l-22.33,-30.44z"/>
  <path id="svg_87" opacity="0.1" d="m535.41411,497.26l-0.56,0.6s-26.25,-15.25 -24.25,-19.5c1,-2.18 1.59,-6.72 1.9,-10.63l0,-0.61l22.91,30.14z"/>
  <path id="svg_88" fill="#eaeaf2" d="m512.52411,467.42l-10.92,3.44s10.75,32.5 13.75,34.25l19.5,-7.25l-22.33,-30.44z"/>
  <path id="svg_89" opacity="0.1" d="m486.51411,520.51s6.58,1.17 6.46,8s2.71,-8.83 2.71,-8.83l-9.17,0.83z"/>
  <path id="svg_90" opacity="0.1" d="m488.01411,541.51s-1.83,10.33 0,19.67s1.67,12.5 3.09,13s-3.09,-32.67 -3.09,-32.67z"/>
  <path id="svg_91" opacity="0.1" d="m572.01411,540.51a3.62,3.62 0 0 0 -3,4.67c0.84,4.18 3,-4.67 3,-4.67z"/>
  <path id="svg_92" opacity="0.1" d="m457.68411,575.51s21.43,-1.83 25,2s-25,-2 -25,-2z"/>
  <path id="svg_93" opacity="0.1" d="m582.01411,576.96s15.67,-1.93 19.34,0.74"/>
  <path id="svg_94" opacity="0.1" d="m588.35411,579.51s9.33,0.33 11.5,1.5"/>
  <path id="svg_95" opacity="0.1" d="m590.18411,582.86s8.5,-0.33 9.67,1"/>
  <path id="svg_96" opacity="0.1" d="m470.31411,629.86s7.28,3.79 6.54,7.66s-6.54,-7.66 -6.54,-7.66z"/>
  <path id="svg_97" opacity="0.1" d="m464.01411,631.7s11.11,14.41 9.6,19.16s-9.6,-19.16 -9.6,-19.16z"/>
  <path id="svg_98" opacity="0.1" d="m583.10411,634.09s-5.5,4.53 -5.35,8.27"/>
  <path id="svg_99" opacity="0.1" d="m456.10411,723.36s0,4.25 7.87,10.5"/>
  <path id="svg_100" opacity="0.1" d="m595.01411,713.36s-0.84,8.84 -8.5,13.42"/>
  <g id="svg_101" opacity="0.1">
   <path id="svg_102" d="m500.60411,413.32c0,-0.69 -0.12,-1.4 -0.18,-2.1a20.17,20.17 0 0 0 0.14,4.58a18.64,18.64 0 0 0 0.04,-2.48z"/>
   <path id="svg_103" d="m499.01411,441.26c0.15,-2.9 -2.37,-5.23 -3.1,-8a2.7,2.7 0 0 1 -0.08,-0.41a7.71,7.71 0 0 0 0.08,3.41c0.59,2.29 2.37,4.25 2.93,6.47c0.05,-0.52 0.15,-0.99 0.17,-1.47z"/>
   <path id="svg_104" d="m568.95411,428.77a13.33,13.33 0 0 1 -3.57,4.39c-2.33,2.15 -5.22,4.46 -8.31,3.76c-4.59,-1 -6.17,-8 -10.85,-8.48s-7.79,6 -12.52,5.87c-2,-0.05 -3.8,-1.36 -5.64,-2.27c-3.22,-1.59 -8.51,-2.56 -12,-1.36c-5.23,1.79 -7,6.63 -10.36,10.48a16.87,16.87 0 0 1 -4.4,3.58a2.12,2.12 0 0 1 -1.13,0.35a1.39,1.39 0 0 1 -1.12,-0.9l0,0.07a15.39,15.39 0 0 0 -0.19,2.24a1.65,1.65 0 0 0 1.31,1.59a2.12,2.12 0 0 0 1.13,-0.35a16.87,16.87 0 0 0 4.4,-3.58c3.38,-3.85 5.13,-8.69 10.36,-10.48c3.53,-1.2 8.82,-0.23 12,1.36c1.84,0.91 3.6,2.22 5.64,2.27c4.73,0.12 7.82,-6.39 12.52,-5.87s6.26,7.44 10.85,8.48c3.09,0.7 6,-1.61 8.31,-3.76a13.33,13.33 0 0 0 3.57,-4.39a8.44,8.44 0 0 0 0.43,-4.54a7.07,7.07 0 0 1 -0.43,1.54z"/>
  </g>
  <path id="svg_105" opacity="0.1" d="m431.77411,762.99s8.17,-2.52 11.56,2.26"/>
  <path id="svg_106" opacity="0.1" d="m621.04411,763.99s-13.53,-0.79 -13,2.87"/>
  <ellipse id="svg_107" opacity="0.1" fill="#2caeba" ry="4.55" rx="26.93" cy="752.03" cx="891.17412"/>
  <ellipse id="svg_108" opacity="0.1" fill="#2caeba" ry="4.55" rx="26.93" cy="789.37" cx="118.09412"/>
  <ellipse id="svg_109" opacity="0.1" fill="#2caeba" ry="4.55" rx="26.93" cy="813.78" cx="222.26412"/>
  <ellipse id="svg_110" fill="#3be5dd" ry="6.8" rx="40.21" cy="800.79" cx="832.22412"/>
  <path id="svg_111" fill="#3be5dd" d="m848.85411,789.67a11.71,11.71 0 0 0 3.83,-5.79c0.5,-2.29 -0.48,-5 -2.68,-5.89c-2.46,-0.94 -5.09,0.77 -7.08,2.49s-4.28,3.69 -6.89,3.32a10.48,10.48 0 0 0 3.25,-9.81a4.13,4.13 0 0 0 -0.91,-2c-1.36,-1.46 -3.84,-0.84 -5.47,0.32c-5.2,3.65 -6.65,10.72 -6.68,17.07c-0.53,-2.29 -0.08,-4.68 -0.1,-7s-0.65,-5 -2.64,-6.23a7.94,7.94 0 0 0 -4,-0.94c-2.34,-0.09 -4.94,0.15 -6.54,1.86c-2,2.12 -1.46,5.68 0.26,8s4.35,3.81 6.77,5.42a15,15 0 0 1 4.83,4.61a4.16,4.16 0 0 1 0.36,0.83l14.61,0a41.06,41.06 0 0 0 9.08,-6.26z"/>
  <path id="svg_112" fill="#3be5dd" d="m223.65411,701.96s5.5,7.19 -2.53,18s-14.65,20 -12,26.77c0,0 12.12,-20.15 22,-20.43s3.38,-12.22 -7.47,-24.34z"/>
  <path id="svg_113" opacity="0.1" d="m223.65411,701.96a8.83,8.83 0 0 1 1.12,2.26c9.62,11.3 14.75,21.85 5.5,22.11c-8.61,0.25 -18.94,15.65 -21.42,19.54c0.08,0.3 0.18,0.59 0.29,0.89c0,0 12.12,-20.15 22,-20.43s3.36,-12.25 -7.49,-24.37z"/>
  <path id="svg_114" fill="#ffd037" d="m233.86411,711.12c0,2.53 -0.28,4.58 -0.63,4.58s-0.63,-2.05 -0.63,-4.58s0.35,-1.34 0.7,-1.34s0.56,-1.19 0.56,1.34z"/>
  <path id="svg_115" fill="#ffd037" d="m237.37411,714.14c-2.22,1.21 -4.16,1.94 -4.32,1.63s1.49,-1.54 3.71,-2.75s1.35,-0.33 1.51,0s1.32,-0.09 -0.9,1.12z"/>
  <path id="svg_116" fill="#3be5dd" d="m194.64411,701.96s-5.5,7.19 2.53,18s14.65,20 12,26.77c0,0 -12.11,-20.15 -22,-20.43s-3.4,-12.22 7.47,-24.34z"/>
  <path id="svg_117" opacity="0.1" d="m194.64411,701.96a9,9 0 0 0 -1.13,2.26c-9.62,11.3 -14.74,21.85 -5.5,22.11c8.62,0.25 18.95,15.65 21.43,19.54a7.76,7.76 0 0 1 -0.3,0.89s-12.11,-20.15 -22,-20.43s-3.37,-12.25 7.5,-24.37z"/>
  <path id="svg_118" fill="#ffd037" d="m184.42411,711.12c0,2.53 0.29,4.58 0.64,4.58s0.63,-2.05 0.63,-4.58s-0.35,-1.34 -0.7,-1.34s-0.57,-1.19 -0.57,1.34z"/>
  <path id="svg_119" fill="#ffd037" d="m180.92411,714.14c2.22,1.21 4.15,1.94 4.32,1.63s-1.5,-1.54 -3.72,-2.75s-1.34,-0.33 -1.51,0s-1.31,-0.09 0.91,1.12z"/>
  <path id="svg_120" fill="#a8a8a8" d="m186.17411,745.82s15.36,-0.48 20,-3.77s23.63,-7.24 24.77,-1.95s23.09,26.29 5.75,26.43s-40.3,-2.7 -44.92,-5.51s-5.6,-15.2 -5.6,-15.2z"/>
  <path id="svg_121" opacity="0.2" d="m236.99411,764.69c-17.34,0.14 -40.3,-2.7 -44.92,-5.51c-3.51,-2.15 -4.92,-9.84 -5.39,-13.38l-0.51,0s1,12.38 5.59,15.2s27.58,5.65 44.92,5.51c5,0 6.73,-1.82 6.64,-4.46c-0.7,1.62 -2.61,2.61 -6.33,2.64z"/>
  <g stroke="null">
   <title stroke="null">globe-hero</title>
   <g stroke="null">
    <title stroke="null">Layer 1</title>
    <path stroke="null" id="svg_149" fill="#3a3768" d="m608.8188,296.50644l0,0.50883q-0.01667,1.91666 -0.10548,3.81604a81.61359,84.99393 0 0 1 -162.95522,1.11011q-0.16658,-2.69724 -0.16658,-5.43495a81.20937,84.57296 0 0 1 15.00693,-49.12885q1.17421,-1.73457 2.44282,-3.40551c0.58294,-0.77479 1.18257,-1.53222 1.78774,-2.28386a81.62897,85.00994 0 0 1 113.73719,-11.24002c0.98271,0.8268 1.94874,1.68252 2.89254,2.55559q1.13263,1.04944 2.22633,2.1451a81.39287,84.76406 0 0 1 24.85056,54.21109q0.28315,3.53849 0.28315,7.14643z"/>
    <path stroke="null" id="svg_148" fill="#3be5dd" d="m463.04131,243.97208a0.45405,0.47286 0 0 1 0.11104,0.06939c0.4386,0.37582 -0.11104,1.09856 -0.04442,1.69409c0.07773,0.76321 1.05487,0.93089 1.79328,1.00607c0.73841,0.08095 1.67114,0.69961 1.32136,1.38188c-1.85435,0.66492 -3.73091,0.01156 -5.62412,-0.74587a81.20945,84.57305 0 0 0 -15.00692,49.12883q0,2.74062 0.16658,5.43499a2.10962,2.197 0 0 0 0.50523,0.28333c0.55519,0.2197 1.19922,0.17924 1.71,0.49146c0.40529,0.24862 0.67734,0.68805 1.08263,0.91932c1.16036,0.65914 2.77042,-0.6071 3.85305,0.17924a9.95518,10.36752 0 0 1 0.79393,0.84416c0.99935,0.90198 2.64273,0.29488 3.79753,0.97136c0.74396,0.43364 1.12705,1.30093 1.52679,2.08727c0.9938,1.96585 2.60386,3.89702 4.73026,4.0531a12.73798,13.26557 0 0 1 2.00981,0.06938c0.65513,0.15611 1.29916,0.75165 1.19367,1.43969c-0.18322,1.18529 0.37754,2.48044 0.22763,3.66573c-0.27206,2.16821 -3.22013,3.11644 -3.46997,5.28466a12.5359,13.05512 0 0 1 -0.07773,1.42813c-0.13325,0.56662 -0.54409,1.02918 -0.68844,1.5958c-0.2776,1.06965 0.46081,2.1393 1.26585,2.85626c0.81058,0.72274 1.77662,1.34718 2.22078,2.35323c0.46636,1.06965 0.23874,2.31276 0.38864,3.47492c0.33312,2.53826 2.43731,4.41737 4.60257,5.63157a4.80568,5.00473 0 0 1 1.79883,1.36453c0.55519,0.83838 0.49968,1.94272 0.68844,2.94299c0.45526,2.44575 2.43176,4.46363 2.48727,6.95563c0.03886,1.77503 -0.90496,3.38241 -1.47127,5.05338a11.19861,11.66244 0 0 0 -0.50523,5.45811a82.00457,85.40111 0 0 0 10.06568,7.6032a2.9326,3.05406 0 0 0 0.4164,-0.97136a1.84472,1.92113 0 0 0 -0.86057,-1.98898a4.56407,4.7531 0 0 0 1.59341,-1.06387a1.56305,1.62779 0 0 0 0.2887,-1.83866c0.97714,0.1272 2.1375,0.1908 2.78152,-0.58976c0.51633,-0.62444 0.48303,-1.56111 0.2776,-2.35323a9.31934,9.70534 0 0 1 -0.55519,-2.39371a41.34528,43.05775 0 0 0 6.78448,-0.23706a4.40427,4.58669 0 0 0 -2.06533,-2.69437c1.02156,-0.17924 1.94874,-1.45126 2.27075,-2.47466a6.0525,6.30319 0 0 0 0.04442,-3.19739a1.63318,1.70082 0 0 1 -0.03331,-0.83259a1.57295,1.6381 0 0 1 0.81058,-0.81525q2.53169,-1.51775 5.06337,-3.02971a3.05281,3.17925 0 0 0 0.81058,-0.61867c0.52742,-0.65335 0.44971,-1.63049 0.17767,-2.43418s-0.7051,-1.56111 -0.81058,-2.40527c-0.31091,-2.52669 2.2874,-4.34221 3.16461,-6.72435a9.69765,10.09932 0 0 0 0.47747,-2.94299c0.07217,-1.07543 0.07773,-2.31854 -0.71065,-3.00659c-0.76061,-0.66492 -1.94318,-0.51459 -2.73711,-1.13325c-0.72731,-0.56662 -0.97715,-1.6594 -1.77107,-2.11618c-0.72175,-0.4163 -1.62117,-0.15033 -2.4262,-0.34691c-1.41019,-0.34113 -2.2985,-2.03523 -3.74203,-2.19134c-0.81059,-0.09251 -1.73221,0.32379 -2.39843,-0.16768c-0.58851,-0.43941 -0.61071,-1.31249 -0.72175,-2.05258a5.50573,5.73377 0 0 0 -4.44156,-4.63708c-0.83834,-0.13877 -1.74886,-0.08673 -2.46507,-0.56663c-0.72175,-0.48568 -1.04931,-1.39344 -1.62117,-2.06992c-0.91052,-1.08122 -2.35404,-1.4686 -3.70315,-1.79817q-2.74821,-0.66781 -5.49085,-1.3414c-0.97159,-0.24284 -2.22633,-0.37004 -2.75377,0.52037a3.756,3.91157 0 0 0 -0.32201,1.06965a3.18522,3.31714 0 0 1 -2.98694,2.33589a3.5293,3.67548 0 0 0 -2.07642,-1.67675a13.1008,13.64342 0 0 1 -1.68779,-0.4163a2.36467,2.46261 0 0 1 -1.02156,-3.41711a2.946,3.06802 0 0 0 -0.50523,-3.68307c-0.93273,-0.87307 -2.28185,-1.087 -3.53659,-1.00027c-0.32756,-0.74586 0.22208,-1.58424 0.81059,-2.12774c0.59406,-0.53772 1.31026,-1.06965 1.43795,-1.87912c0.20542,-1.272 -1.35467,-2.2376 -2.53724,-1.86178c-1.18257,0.38161 -1.93763,1.57846 -2.43731,2.75797a7.98691,8.31771 0 0 1 -0.98269,1.96007a1.92924,2.00915 0 0 1 -1.86545,0.7979c-0.97715,-0.26019 -1.34913,-1.4686 -1.56565,-2.48622a15.56676,16.21152 0 0 1 -0.52188,-4.16875a5.22547,5.44191 0 0 1 1.51013,-3.79293c1.61562,-1.54955 4.10287,-1.39925 6.2848,-1.1506a1.60082,1.66713 0 0 1 0.16658,-2.19712a2.39876,2.49811 0 0 1 2.17637,-0.55506a2.98599,3.10966 0 0 1 1.68224,1.04652c0.62182,0.78636 0.79948,1.85599 1.26585,2.7464c0.47192,0.89621 1.52679,1.6594 2.38734,1.17951c0.74951,-0.4163 0.8661,-1.49173 0.68289,-2.35324c-0.18876,-0.85572 -0.58295,-1.69409 -0.51633,-2.57295c0.12769,-1.67097 1.79883,-2.6828 3.2701,-3.37085s3.15352,-1.61895 3.38669,-3.28413a2.94679,3.06885 0 0 1 0.17766,-0.94823a1.78001,1.85373 0 0 1 0.66068,-0.64757c4.29165,-2.95458 8.66104,-5.94958 13.56896,-7.56273c0.25539,-0.08673 0.28315,0.00579 0.54409,-0.05782c0.36643,-0.2197 0.12215,-0.82681 -0.22763,-1.06965s-0.81613,-0.43364 -0.90496,-0.8615c-0.06109,-0.31222 0.11659,-0.62445 0.16101,-0.94244a1.12987,1.17667 0 0 0 -1.48237,-1.19107c-0.39419,-0.5435 0.38309,-1.17373 1.016,-1.35875a27.74954,28.89889 0 0 1 5.80179,-0.98292a1.0331,1.07589 0 0 1 0.66068,0.11564a0.78516,0.81768 0 0 1 0.04997,1.12169a6.08076,6.33262 0 0 1 -0.88276,0.83838a2.42507,2.52552 0 0 0 -0.63292,2.53825c1.02711,0.5435 2.1375,1.10435 3.27565,0.91354c1.1326,-0.1908 2.1375,-1.52064 1.60451,-2.57873c-0.49412,-0.9887 -1.98759,-1.2142 -2.24299,-2.29542c-0.2998,-1.26623 1.4213,-2.3937 1.03267,-3.63103c-0.16658,-0.5435 -0.68844,-0.86729 -1.08819,-1.25468a3.28478,3.42083 0 0 1 -0.7162,-3.78136a4.13703,4.30838 0 0 1 -3.61987,-1.17951c-0.8661,-0.90776 -1.55456,-2.34745 -2.78708,-2.3012c-1.12705,0.03469 -2.09864,1.405 -3.15352,0.9887c-0.26094,-0.10407 -0.53299,-0.31222 -0.78282,-0.1908a0.6471,0.6739 0 0 0 -0.29426,0.50303c-0.26649,1.33562 0.19432,2.85626 -0.50523,4.01264c-0.76061,1.25467 -2.52059,1.42813 -3.44221,2.56139c-0.49968,0.61289 -0.69399,1.43969 -1.1548,2.08727s-1.4324,1.06387 -1.9876,0.49724a2.73592,2.84924 0 0 0 -0.74396,-3.46914a7.15406,7.45037 0 0 0 -1.64338,-0.83259a9.75291,10.15686 0 0 1 -1.83769,-1.06387a1.82103,1.89645 0 0 1 -0.67178,-0.75165a1.65949,1.72823 0 0 1 0.04439,-1.19107a4.67446,4.86807 0 0 1 3.71425,-3.20318c0.73286,-0.10407 1.58786,-0.06938 2.07643,-0.65335c0.25539,-0.30644 0.38864,-0.77478 0.76617,-0.89621a1.11698,1.16325 0 0 1 0.7051,0.08673c0.91607,0.33535 1.82659,0.6707 2.74266,1.00607a1.87871,1.95652 0 0 0 0.97714,0.16767a0.65727,0.68449 0 0 0 0.57185,-0.72274c-0.08883,-0.47411 -0.78837,-0.69961 -0.72175,-1.1795a0.72003,0.74985 0 0 1 0.22763,-0.40473a9.81029,10.21663 0 0 1 7.77828,-3.19739c0.34422,0.59554 -0.19987,1.29515 -0.66068,1.79817c-0.45526,0.50881 -0.82169,1.41079 -0.2665,1.79817a1.46257,1.52315 0 0 0 0.72731,0.17348a6.34387,6.60663 0 0 1 1.94318,0.61289c0.94938,0.42786 1.88211,0.90198 2.79263,1.41078a3.52073,3.66655 0 0 1 0.06663,-1.87333a1.22159,1.27219 0 0 1 1.44351,-0.81525c0.54409,0.2197 0.82169,0.97136 1.40464,1.04074c0.77172,0.09251 1.07708,-1.09856 0.75509,-1.83866s-0.96605,-1.35297 -1.016,-2.16821c-0.03887,-0.5435 0.16101,-1.21998 -0.25539,-1.54955a1.10454,1.15029 0 0 0 -0.49412,-0.18502q-5.22994,-0.99738 -10.46542,-2.00054c-0.62182,-0.12142 -1.51568,-0.02891 -1.54344,0.62444c-0.01665,0.37004 0.29981,0.7343 0.16101,1.06965c-0.1499,0.35848 -0.63847,0.32956 -0.9938,0.45677a1.34933,1.40521 0 0 0 -0.77727,1.48595a3.88929,4.05038 0 0 0 0.65513,1.67097c-0.68289,-0.29488 -1.71,-0.34691 -2.39289,-0.64757a9.20997,9.59144 0 0 0 -0.59961,-2.39949a0.81325,0.84693 0 0 0 -1.06042,-0.68227c-0.89942,0.14455 -1.79883,0.28333 -2.69825,0.42786a1.04367,1.0869 0 0 0 -0.61627,0.24862c-0.34977,0.38739 -0.00555,1.00607 -0.01665,1.53799a1.38397,1.44129 0 0 1 -1.07154,1.24311a4.03903,4.20632 0 0 1 -1.71,-0.02313c-1.26029,-0.20237 -2.51503,-0.40473 -3.77532,-0.6071a6.18446,6.44061 0 0 0 2.8537,-1.98898c0.49968,-0.61289 0.76617,-1.7577 0.04442,-2.04679a1.72245,1.7938 0 0 0 -0.65513,-0.05203c-1.71,0.01156 -3.05912,-1.47439 -4.65808,-2.10459a4.57886,4.76851 0 0 0 -1.5712,-0.30066l-1.78776,2.28379z"/>
    <path stroke="null" id="svg_147" fill="#3be5dd" d="m608.71331,300.83131a2.00468,2.08771 0 0 1 -1.6989,0.83838c-1.73776,-0.15611 -2.47062,-2.76375 -4.19172,-3.05863a0.67078,0.69857 0 0 0 -0.45526,0.04626c-0.25539,0.14455 -0.29981,0.50303 -0.31645,0.80369c-0.07217,1.4917 -0.13325,3.04128 0.4275,4.41737c0.81613,2.0121 2.93143,3.70042 2.48727,5.83394c-2.38734,-1.15059 -3.63097,-3.94325 -4.19172,-6.62028c-0.5663,-2.67702 -0.65513,-5.48702 -1.66558,-8.0195c-0.77172,1.02339 -2.38179,0.17924 -3.08133,-0.89621c-0.66623,-1.01761 -1.07708,-2.19712 -1.7211,-3.23208c-0.64402,-1.02918 -1.63227,-1.95428 -2.80928,-2.0121c-1.23809,-0.05782 -2.31516,0.82681 -3.259,1.66518a7.54232,7.85471 0 0 0 -2.02646,2.34745c-0.66068,1.38766 -0.48857,3.01816 -0.52188,4.56192c-0.03331,1.66518 -0.37198,3.42867 -1.46572,4.65443c-1.09373,1.21998 -3.10909,1.64784 -4.31386,0.5435a4.86659,5.06816 0 0 1 -1.20478,-2.26072a105.63475,110.01002 0 0 1 -3.26454,-12.13043c-0.19987,0.93667 -0.9938,2.14508 -1.74886,1.5958a1.55939,1.62398 0 0 1 -0.39974,-0.54349c-1.4102,-2.48044 -4.01406,-3.97217 -6.65123,-4.86837c-2.63162,-0.89041 -5.40205,-1.30671 -8.00591,-2.28963a20.4691,21.3169 0 0 1 -4.15841,-2.15665a3.27451,3.41013 0 0 0 -0.19987,3.48071a2.67734,2.78823 0 0 0 3.00916,1.31249c0.5774,-0.19659 1.06597,-0.61289 1.63782,-0.82103c0.57185,-0.20237 1.34357,-0.10408 1.59341,0.47411c0.24429,0.54926 -0.12214,1.2142 0.06107,1.79239c0.27206,0.87307 1.54344,0.94244 1.9876,1.74035a1.54693,1.611 0 0 1 -0.4164,1.86178a7.48226,7.79216 0 0 1 -1.67669,1.07543c-1.86545,1.08121 -3.19237,2.92564 -4.82464,4.35956c-1.63227,1.43969 -3.93633,2.48622 -5.87951,1.56689c0.46081,-2.44575 -2.33182,-4.23814 -2.84815,-6.67232c-0.17211,-0.80369 -0.08328,-1.65362 -0.32201,-2.43418c-0.34977,-1.13325 -1.31581,-1.90803 -2.10419,-2.76375a10.43146,10.86352 0 0 1 -2.85925,-7.8923c0.04439,-1.00607 0.22208,-2.02945 0,-3.01237c-0.21653,-0.97714 -0.99935,-1.92537 -1.96539,-1.88488c-2.20412,0.10408 -4.98565,0.27753 -6.14046,-1.68253c-0.4164,-0.69961 -0.59406,-1.72301 0.00555,-2.26072a2.09616,2.18298 0 0 1 1.59341,-0.28333c1.66005,0.16768 3.31452,0.34113 4.97455,0.5088c1.16035,0.11564 2.4151,0.21393 3.41445,-0.4163s1.43238,-2.31276 0.50523,-3.05863c-0.67178,-0.5435 -1.88211,-0.51459 -2.08198,-1.37609c-0.16101,-0.72274 0.60516,-1.53799 0.18877,-2.14509c-0.29426,-0.42786 -0.96049,-0.31222 -1.36578,0.01157a8.92282,9.2924 0 0 1 -1.14925,1.04652c-0.79393,0.42786 -1.73776,0.01735 -2.59276,-0.26019s-1.9987,-0.30066 -2.40955,0.52615c-0.46636,0.91932 0.40529,2.13352 -0.04997,3.05863c-0.61071,1.21998 -2.66493,0.52615 -3.51994,1.57846c-0.97714,1.20263 0.66623,3.00659 0.33867,4.54457a2.72044,2.83312 0 0 1 -2.68159,-0.15611a2.59603,2.70356 0 0 1 -1.1215,-2.52091c0.07773,-0.69383 0.4275,-1.405 0.19432,-2.05836a2.30735,2.40292 0 0 0 -1.17146,-1.11592q-2.4151,-1.39633 -4.83019,-2.7811c-0.44971,0.86729 0.11659,1.93694 0.82724,2.59029c0.7051,0.64757 1.59341,1.13903 2.05977,1.99474a2.51748,2.62175 0 0 1 -0.94383,3.45757a0.58565,0.6099 0 0 1 -0.48303,0.08673a0.6693,0.69702 0 0 1 -0.31091,-0.43364c-0.84945,-2.27228 -2.13195,-4.5099 -4.17507,-5.69517c-2.04867,-1.19107 -4.98565,-0.94244 -6.32922,1.05229c-0.31645,0.47411 -0.53299,1.01761 -0.81058,1.52064c-1.47127,2.66546 -4.63588,3.92591 -7.58951,3.84497a1.46266,1.52324 0 0 1 -0.82724,-0.20237c-0.47747,-0.34113 -0.45526,-1.06965 -0.38309,-1.67097c0.10548,-0.84994 0.20542,-1.6941 0.31091,-2.54404a1.95645,2.03748 0 0 1 0.53854,-1.39344c0.54964,-0.45099 1.33802,-0.16767 2.03756,-0.17924a2.56666,2.67297 0 0 0 2.33737,-1.87912a2.90046,3.0206 0 0 0 -0.81058,-3.00659c-0.31645,-0.31222 -0.74396,-0.70539 -0.5774,-1.12747a0.89971,0.93697 0 0 1 0.62737,-0.43941c1.24919,-0.37582 2.5761,-0.47411 3.80308,-0.9251c1.23253,-0.4452 2.4262,-1.35875 2.72045,-2.6828c0.08883,-0.40473 0.12769,-0.89621 0.47747,-1.09856a1.54633,1.61038 0 0 1 0.55519,-0.11564a2.70215,2.81407 0 0 0 2.31516,-2.93142c0.58851,-0.42786 1.41575,-0.10985 1.9876,0.34691c0.5663,0.45677 1.07154,1.05809 1.76553,1.25467c1.2936,0.37004 2.54279,-0.82681 3.88636,-0.83259c0.5663,0 1.14925,0.20815 1.67669,0.00579c0.53854,-0.20237 0.86057,-0.75743 1.2714,-1.16795c0.4164,-0.4163 1.13815,-0.66492 1.52123,-0.2197c-0.11104,-0.83838 -0.21653,-1.67097 -0.32757,-2.50357a4.72591,4.92165 0 0 0 3.84751,-0.72852c-1.39909,-0.49146 -2.79263,-0.98292 -4.19172,-1.47439a0.90455,0.94201 0 0 1 -0.39419,-0.2197c-0.30536,-0.34113 0,-0.87307 0.24429,-1.26045c0.59406,-0.93089 0.69399,-2.46309 -0.28315,-2.92565c-0.66623,-0.318 -1.42685,0.06362 -2.06533,0.43364c-1.02155,0.58976 -2.04311,1.18529 -3.06467,1.77503c-0.09438,0.6071 0.61627,0.95401 1.05487,1.35875a1.7691,1.84237 0 0 1 -1.15481,3.22051a2.21625,2.30804 0 0 1 0.39419,1.94851c-0.68289,0.05203 -1.37133,0.10407 -2.05978,0.15611a0.88456,0.92119 0 0 1 -0.66623,-0.13877c-0.22208,-0.20237 -0.18876,-0.56084 -0.24428,-0.8615a1.78698,1.86099 0 0 0 -1.51013,-1.37031a5.21321,5.42913 0 0 0 -2.10419,0.20237a1.2821,1.33521 0 0 1 -0.91052,-0.02313a0.9083,0.94592 0 0 1 -0.35533,-0.47411a2.32142,2.41757 0 0 1 0.46636,-2.32433a12.77575,13.3049 0 0 1 1.75441,-1.68253a10.22757,10.65119 0 0 0 3.04803,-4.91462c1.13259,-0.49724 2.30406,-1.16794 3.44221,-1.66518a13.75073,14.32027 0 0 1 2.85925,-1.00027a13.51192,14.07157 0 0 1 2.80373,-0.13877c1.27695,0.02313 2.55945,0.04626 3.83639,0.07517a9.23292,9.61534 0 0 1 3.35893,0.50303c1.04932,0.45099 1.9765,1.42813 2.04867,2.60762a0.76881,0.80065 0 0 1 -0.24984,0.7343a0.89971,0.93697 0 0 1 -0.48303,0.11564c-1.06042,0.03469 -1.51013,0.31222 -2.57055,0.3527c0.67178,0.74587 1.42685,1.5322 2.40399,1.66518c1.7211,0.23128 2.95919,-1.62472 3.75312,-3.23787a1.51506,1.57781 0 0 0 1.58231,1.46282a3.19075,3.3229 0 0 0 1.19367,-0.48568a23.48094,24.4535 0 0 1 11.13166,-2.99502a1.19865,1.24829 0 0 1 0.91607,-1.37609c0.79393,-0.16189 1.50458,0.54926 1.88766,1.28937c0.37754,0.74008 0.61627,1.5958 1.22698,2.15087c0.60516,0.55506 1.77662,0.52615 2.01535,-0.27175c0.23318,-0.769 -0.53854,-1.42813 -1.17702,-1.88488c-0.64402,-0.45099 -1.31581,-1.28937 -0.88276,-1.96007c3.26455,-0.75743 6.55685,-1.5091 9.90468,-1.65941a4.21482,4.38939 0 0 0 1.66558,-0.30066a1.29465,1.34827 0 0 0 0.77727,-1.42813a3.78538,3.94217 0 0 1 -3.94188,-1.54955c3.43666,-0.29488 7.03432,-0.55506 10.33772,0.24862l2.89256,2.5556c-0.54964,0.59554 -1.2825,1.15638 -0.88276,1.75192a1.23072,1.28169 0 0 0 1.016,0.36426c0.69954,0.01157 1.39909,0.02891 2.09309,0.02891a81.39306,84.76427 0 0 1 24.85052,54.21112c-1.16591,-0.04623 -2.23744,1.49173 -2.08753,2.83313c0.17766,1.55533 1.25474,2.80422 2.02646,4.14563a6.06591,6.31715 0 0 1 0.3442,0.67657l-0.10548,3.81603z"/>
    <circle stroke="null" id="svg_146" fill="#3f3d56" r="7.71127" cy="258.78441" cx="569.58848"/>
    <circle stroke="null" id="svg_145" fill="#fff" r="10.16486" cy="232.3284" cx="594.97654"/>
    <path stroke="null" id="svg_144" fill="#3a3768" d="m605.51292,221.08041a14.72946,15.33954 0 0 0 -20.829,0.26866c-5.68053,6.06419 -13.79054,36.68903 -13.79054,36.68903s29.19697,-9.20179 34.87751,-15.26597a14.72946,15.33954 0 0 0 -0.25797,-21.69171zm-15.30284,16.33637a6.82586,7.10858 0 1 1 9.65246,-0.1245a6.82586,7.10858 0 0 1 -9.65246,0.1245z"/>
   </g>
  </g>
 </g>
</svg>