<svg xmlns="http://www.w3.org/2000/svg" height="100" viewBox="0 0 512 512" width="100" stroke-linejoin="round"><path d="M449.4 0c34.5 0 62.6 28 62.6 62.6l0 386.9c0 34.5-28 62.6-62.6 62.6l-386.9 0c-34.5 0-62.6-28-62.6-62.6l0-386.9c0-34.5 28-62.6 62.6-62.6l386.9 0Zm-193.4 81c-47.5 0-53.5 0.2-72.2 1.1 -18.6 0.9-31.3 3.8-42.5 8.1 -11.5 4.5-21.3 10.5-31 20.2 -9.7 9.7-15.7 19.5-20.2 31 -4.3 11.1-7.3 23.9-8.1 42.5 -0.9 18.7-1.1 24.6-1.1 72.2 0 47.5 0.2 53.5 1.1 72.2 0.9 18.6 3.8 31.3 8.1 42.5 4.5 11.5 10.5 21.3 20.2 31 9.7 9.7 19.5 15.7 31 20.2 11.1 4.3 23.9 7.3 42.5 8.1 18.7 0.9 24.6 1.1 72.2 1.1 47.5 0 53.5-0.2 72.2-1.1 18.6-0.8 31.3-3.8 42.5-8.1 11.5-4.5 21.3-10.5 31-20.2 9.7-9.7 15.7-19.5 20.2-31 4.3-11.1 7.3-23.9 8.1-42.5 0.9-18.7 1.1-24.6 1.1-72.2 0-47.5-0.2-53.5-1.1-72.2 -0.8-18.6-3.8-31.3-8.1-42.5 -4.5-11.5-10.5-21.3-20.2-31 -9.7-9.7-19.5-15.7-31-20.2 -11.1-4.3-23.9-7.3-42.5-8.1 -18.7-0.9-24.6-1.1-72.2-1.1Zm0 31.5c46.7 0 52.3 0.2 70.7 1 17.1 0.8 26.3 3.6 32.5 6 8.2 3.2 14 7 20.1 13.1 6.1 6.1 9.9 12 13.1 20.1 2.4 6.2 5.2 15.4 6 32.5 0.8 18.5 1 24 1 70.7 0 46.7-0.2 52.3-1 70.7 -0.8 17.1-3.6 26.3-6 32.5 -3.2 8.2-7 14-13.1 20.1 -6.1 6.1-12 9.9-20.1 13.1 -6.2 2.4-15.4 5.2-32.5 6 -18.4 0.8-24 1-70.7 1 -46.7 0-52.3-0.2-70.7-1 -17.1-0.8-26.3-3.6-32.5-6 -8.2-3.2-14-7-20.1-13.1 -6.1-6.1-9.9-12-13.1-20.1 -2.4-6.2-5.2-15.4-6-32.5 -0.8-18.5-1-24-1-70.7 0-46.7 0.2-52.3 1-70.7 0.8-17.1 3.6-26.3 6-32.5 3.2-8.2 7-14 13.1-20.1 6.1-6.1 12-9.9 20.1-13.1 6.2-2.4 15.4-5.2 32.5-6 18.5-0.8 24-1 70.7-1Zm0 53.6c-49.6 0-89.9 40.2-89.9 89.9 0 49.6 40.2 89.9 89.9 89.9 49.6 0 89.9-40.2 89.9-89.9 0-49.6-40.2-89.9-89.9-89.9Zm0 148.2c-32.2 0-58.3-26.1-58.3-58.3 0-32.2 26.1-58.3 58.3-58.3 32.2 0 58.3 26.1 58.3 58.3 0 32.2-26.1 58.3-58.3 58.3Zm114.4-151.7c0 11.6-9.4 21-21 21 -11.6 0-21-9.4-21-21 0-11.6 9.4-21 21-21 11.6 0 21 9.4 21 21Z"/></svg>
