
<svg xmlns="http://www.w3.org/2000/svg" height="100" viewBox="0 0 512 512" width="100" stroke-linejoin="round"><path d="M449.4 0c34.5 0 62.6 28 62.6 62.6l0 386.9c0 34.5-28 62.6-62.6 62.6l-386.9 0c-34.5 0-62.6-28-62.6-62.6l0-386.9c0-34.5 28-62.6 62.6-62.6l386.9 0Zm-253.9 424.5c135.9 0 210.3-112.6 210.3-210.3 0-3.2 0-6.4-0.2-9.5 14.4-10.4 27-23.4 36.9-38.3 -13.2 5.8-27.4 9.8-42.5 11.6 15.3-9.2 27-23.6 32.5-40.9 -14.3 8.4-30 14.6-46.9 17.9 -13.5-14.4-32.6-23.3-53.9-23.3 -40.8 0-73.9 33.1-73.9 73.9 0 5.8 0.6 11.5 2 16.9 -61.5-3.1-115.9-32.5-152.3-77.2 -6.3 10.9-10 23.6-10 37.1 0 25.6 13 48.3 33 61.5 -12.1-0.3-23.4-3.7-33.4-9.2l0 0.9c0 35.9 25.4 65.6 59.3 72.5 -6.1 1.7-12.7 2.6-19.5 2.6 -4.8 0-9.3-0.5-13.9-1.4 9.3 29.4 36.6 50.7 69 51.3 -25.3 19.8-57.2 31.6-91.8 31.6 -6 0-11.8-0.3-17.6-1.1 32.3 21.2 71.3 33.4 113 33.4Z"/></svg>